<?xml version="1.0" encoding="utf-8" standalone="no"?>
<!DOCTYPE svg PUBLIC "-//W3C//DTD SVG 1.1//EN"
  "http://www.w3.org/Graphics/SVG/1.1/DTD/svg11.dtd">
<svg xmlns:xlink="http://www.w3.org/1999/xlink" width="792pt" height="468pt" viewBox="0 0 792 468" xmlns="http://www.w3.org/2000/svg" version="1.1">
 <metadata>
  <rdf:RDF xmlns:dc="http://purl.org/dc/elements/1.1/" xmlns:cc="http://creativecommons.org/ns#" xmlns:rdf="http://www.w3.org/1999/02/22-rdf-syntax-ns#">
   <cc:Work>
    <dc:type rdf:resource="http://purl.org/dc/dcmitype/StillImage"/>
    <dc:date>2026-09-16T16:33:34.543334</dc:date>
    <dc:format>image/svg+xml</dc:format>
    <dc:creator>
     <cc:Agent>
      <dc:title>Matplotlib v3.11.1, https://matplotlib.org/</dc:title>
     </cc:Agent>
    </dc:creator>
   </cc:Work>
  </rdf:RDF>
 </metadata>
 <defs>
  <style type="text/css">*{stroke-linejoin: round; stroke-linecap: butt}</style>
 </defs>
 <g id="figure_1">
  <g id="patch_1">
   <path d="M 0 468 
L 792 468 
L 792 0 
L 0 0 
z
" style="fill: #ffffff"/>
  </g>
  <g id="axes_1">
   <g id="patch_2">
    <path d="M 41.681719 221.718936 
L 780.12 221.718936 
L 780.12 27.344355 
L 41.681719 27.344355 
z
" style="fill: #ffffff"/>
   </g>
   <g id="matplotlib.axis_1">
    <g id="xtick_1">
     <g id="line2d_1">
      <path d="M 75.247095 221.718936 
L 75.247095 27.344355 
" clip-path="url(#p8410c94893)" style="fill: none; stroke: #cccccc; stroke-width: 0.8; stroke-linecap: round"/>
     </g>
     <g id="line2d_2"/>
    </g>
    <g id="xtick_2">
     <g id="line2d_3">
      <path d="M 171.148171 221.718936 
L 171.148171 27.344355 
" clip-path="url(#p8410c94893)" style="fill: none; stroke: #cccccc; stroke-width: 0.8; stroke-linecap: round"/>
     </g>
     <g id="line2d_4"/>
    </g>
    <g id="xtick_3">
     <g id="line2d_5">
      <path d="M 267.049246 221.718936 
L 267.049246 27.344355 
" clip-path="url(#p8410c94893)" style="fill: none; stroke: #cccccc; stroke-width: 0.8; stroke-linecap: round"/>
     </g>
     <g id="line2d_6"/>
    </g>
    <g id="xtick_4">
     <g id="line2d_7">
      <path d="M 362.950322 221.718936 
L 362.950322 27.344355 
" clip-path="url(#p8410c94893)" style="fill: none; stroke: #cccccc; stroke-width: 0.8; stroke-linecap: round"/>
     </g>
     <g id="line2d_8"/>
    </g>
    <g id="xtick_5">
     <g id="line2d_9">
      <path d="M 458.851397 221.718936 
L 458.851397 27.344355 
" clip-path="url(#p8410c94893)" style="fill: none; stroke: #cccccc; stroke-width: 0.8; stroke-linecap: round"/>
     </g>
     <g id="line2d_10"/>
    </g>
    <g id="xtick_6">
     <g id="line2d_11">
      <path d="M 554.752473 221.718936 
L 554.752473 27.344355 
" clip-path="url(#p8410c94893)" style="fill: none; stroke: #cccccc; stroke-width: 0.8; stroke-linecap: round"/>
     </g>
     <g id="line2d_12"/>
    </g>
    <g id="xtick_7">
     <g id="line2d_13">
      <path d="M 650.653548 221.718936 
L 650.653548 27.344355 
" clip-path="url(#p8410c94893)" style="fill: none; stroke: #cccccc; stroke-width: 0.8; stroke-linecap: round"/>
     </g>
     <g id="line2d_14"/>
    </g>
    <g id="xtick_8">
     <g id="line2d_15">
      <path d="M 746.554624 221.718936 
L 746.554624 27.344355 
" clip-path="url(#p8410c94893)" style="fill: none; stroke: #cccccc; stroke-width: 0.8; stroke-linecap: round"/>
     </g>
     <g id="line2d_16"/>
    </g>
   </g>
   <g id="matplotlib.axis_2">
    <g id="ytick_1">
     <g id="line2d_17">
      <path d="M 41.681719 207.761868 
L 780.12 207.761868 
" clip-path="url(#p8410c94893)" style="fill: none; stroke: #cccccc; stroke-width: 0.8; stroke-linecap: round"/>
     </g>
     <g id="line2d_18"/>
     <g id="text_1">
      <!-- 0 -->
      <g style="fill: #262626" transform="translate(32.620781 211.402004) scale(0.1 -0.1)">
       <defs>
        <path id="LiberationSans-13" d="M 3309 2203 
Q 3309 1100 2920 518 
Q 2531 -63 1772 -63 
Q 1013 -63 631 515 
Q 250 1094 250 2203 
Q 250 3338 620 3903 
Q 991 4469 1791 4469 
Q 2569 4469 2939 3897 
Q 3309 3325 3309 2203 
z
M 2738 2203 
Q 2738 3156 2517 3584 
Q 2297 4013 1791 4013 
Q 1272 4013 1045 3591 
Q 819 3169 819 2203 
Q 819 1266 1048 831 
Q 1278 397 1778 397 
Q 2275 397 2506 840 
Q 2738 1284 2738 2203 
z
" transform="scale(0.015625)"/>
       </defs>
       <use xlink:href="#LiberationSans-13"/>
      </g>
     </g>
    </g>
    <g id="ytick_2">
     <g id="line2d_19">
      <path d="M 41.681719 182.152568 
L 780.12 182.152568 
" clip-path="url(#p8410c94893)" style="fill: none; stroke: #cccccc; stroke-width: 0.8; stroke-linecap: round"/>
     </g>
     <g id="line2d_20"/>
     <g id="text_2">
      <!-- 2 -->
      <g style="fill: #262626" transform="translate(32.620781 185.792705) scale(0.1 -0.1)">
       <defs>
        <path id="LiberationSans-15" d="M 322 0 
L 322 397 
Q 481 763 711 1042 
Q 941 1322 1194 1548 
Q 1447 1775 1695 1969 
Q 1944 2163 2144 2356 
Q 2344 2550 2467 2762 
Q 2591 2975 2591 3244 
Q 2591 3606 2378 3806 
Q 2166 4006 1788 4006 
Q 1428 4006 1195 3811 
Q 963 3616 922 3263 
L 347 3316 
Q 409 3844 795 4156 
Q 1181 4469 1788 4469 
Q 2453 4469 2811 4155 
Q 3169 3841 3169 3263 
Q 3169 3006 3051 2753 
Q 2934 2500 2703 2247 
Q 2472 1994 1819 1463 
Q 1459 1169 1246 933 
Q 1034 697 941 478 
L 3238 478 
L 3238 0 
L 322 0 
z
" transform="scale(0.015625)"/>
       </defs>
       <use xlink:href="#LiberationSans-15"/>
      </g>
     </g>
    </g>
    <g id="ytick_3">
     <g id="line2d_21">
      <path d="M 41.681719 156.543269 
L 780.12 156.543269 
" clip-path="url(#p8410c94893)" style="fill: none; stroke: #cccccc; stroke-width: 0.8; stroke-linecap: round"/>
     </g>
     <g id="line2d_22"/>
     <g id="text_3">
      <!-- 4 -->
      <g style="fill: #262626" transform="translate(32.620781 160.183406) scale(0.1 -0.1)">
       <defs>
        <path id="LiberationSans-17" d="M 2753 997 
L 2753 0 
L 2222 0 
L 2222 997 
L 147 997 
L 147 1434 
L 2163 4403 
L 2753 4403 
L 2753 1441 
L 3372 1441 
L 3372 997 
L 2753 997 
z
M 2222 3769 
Q 2216 3750 2134 3603 
Q 2053 3456 2013 3397 
L 884 1734 
L 716 1503 
L 666 1441 
L 2222 1441 
L 2222 3769 
z
" transform="scale(0.015625)"/>
       </defs>
       <use xlink:href="#LiberationSans-17"/>
      </g>
     </g>
    </g>
    <g id="ytick_4">
     <g id="line2d_23">
      <path d="M 41.681719 130.93397 
L 780.12 130.93397 
" clip-path="url(#p8410c94893)" style="fill: none; stroke: #cccccc; stroke-width: 0.8; stroke-linecap: round"/>
     </g>
     <g id="line2d_24"/>
     <g id="text_4">
      <!-- 6 -->
      <g style="fill: #262626" transform="translate(32.620781 134.574107) scale(0.1 -0.1)">
       <defs>
        <path id="LiberationSans-19" d="M 3278 1441 
Q 3278 744 2900 340 
Q 2522 -63 1856 -63 
Q 1113 -63 719 490 
Q 325 1044 325 2100 
Q 325 3244 734 3856 
Q 1144 4469 1900 4469 
Q 2897 4469 3156 3572 
L 2619 3475 
Q 2453 4013 1894 4013 
Q 1413 4013 1148 3564 
Q 884 3116 884 2266 
Q 1038 2550 1316 2698 
Q 1594 2847 1953 2847 
Q 2563 2847 2920 2465 
Q 3278 2084 3278 1441 
z
M 2706 1416 
Q 2706 1894 2472 2153 
Q 2238 2413 1819 2413 
Q 1425 2413 1183 2183 
Q 941 1953 941 1550 
Q 941 1041 1192 716 
Q 1444 391 1838 391 
Q 2244 391 2475 664 
Q 2706 938 2706 1416 
z
" transform="scale(0.015625)"/>
       </defs>
       <use xlink:href="#LiberationSans-19"/>
      </g>
     </g>
    </g>
    <g id="ytick_5">
     <g id="line2d_25">
      <path d="M 41.681719 105.324671 
L 780.12 105.324671 
" clip-path="url(#p8410c94893)" style="fill: none; stroke: #cccccc; stroke-width: 0.8; stroke-linecap: round"/>
     </g>
     <g id="line2d_26"/>
     <g id="text_5">
      <!-- 8 -->
      <g style="fill: #262626" transform="translate(32.620781 108.964808) scale(0.1 -0.1)">
       <defs>
        <path id="LiberationSans-1b" d="M 3281 1228 
Q 3281 619 2893 278 
Q 2506 -63 1781 -63 
Q 1075 -63 676 271 
Q 278 606 278 1222 
Q 278 1653 525 1947 
Q 772 2241 1156 2303 
L 1156 2316 
Q 797 2400 589 2681 
Q 381 2963 381 3341 
Q 381 3844 757 4156 
Q 1134 4469 1769 4469 
Q 2419 4469 2795 4162 
Q 3172 3856 3172 3334 
Q 3172 2956 2962 2675 
Q 2753 2394 2391 2322 
L 2391 2309 
Q 2813 2241 3047 1952 
Q 3281 1663 3281 1228 
z
M 2588 3303 
Q 2588 4050 1769 4050 
Q 1372 4050 1164 3862 
Q 956 3675 956 3303 
Q 956 2925 1170 2726 
Q 1384 2528 1775 2528 
Q 2172 2528 2380 2711 
Q 2588 2894 2588 3303 
z
M 2697 1281 
Q 2697 1691 2453 1898 
Q 2209 2106 1769 2106 
Q 1341 2106 1100 1882 
Q 859 1659 859 1269 
Q 859 359 1788 359 
Q 2247 359 2472 579 
Q 2697 800 2697 1281 
z
" transform="scale(0.015625)"/>
       </defs>
       <use xlink:href="#LiberationSans-1b"/>
      </g>
     </g>
    </g>
    <g id="ytick_6">
     <g id="line2d_27">
      <path d="M 41.681719 79.715372 
L 780.12 79.715372 
" clip-path="url(#p8410c94893)" style="fill: none; stroke: #cccccc; stroke-width: 0.8; stroke-linecap: round"/>
     </g>
     <g id="line2d_28"/>
     <g id="text_6">
      <!-- 10 -->
      <g style="fill: #262626" transform="translate(27.059844 83.355509) scale(0.1 -0.1)">
       <defs>
        <path id="LiberationSans-14" d="M 488 0 
L 488 478 
L 1609 478 
L 1609 3866 
L 616 3156 
L 616 3688 
L 1656 4403 
L 2175 4403 
L 2175 478 
L 3247 478 
L 3247 0 
L 488 0 
z
" transform="scale(0.015625)"/>
       </defs>
       <use xlink:href="#LiberationSans-14"/>
       <use xlink:href="#LiberationSans-13" transform="translate(55.609375 0)"/>
      </g>
     </g>
    </g>
    <g id="ytick_7">
     <g id="line2d_29">
      <path d="M 41.681719 54.106073 
L 780.12 54.106073 
" clip-path="url(#p8410c94893)" style="fill: none; stroke: #cccccc; stroke-width: 0.8; stroke-linecap: round"/>
     </g>
     <g id="line2d_30"/>
     <g id="text_7">
      <!-- 12 -->
      <g style="fill: #262626" transform="translate(27.059844 57.74621) scale(0.1 -0.1)">
       <use xlink:href="#LiberationSans-14"/>
       <use xlink:href="#LiberationSans-15" transform="translate(55.609375 0)"/>
      </g>
     </g>
    </g>
    <g id="ytick_8">
     <g id="line2d_31">
      <path d="M 41.681719 28.496774 
L 780.12 28.496774 
" clip-path="url(#p8410c94893)" style="fill: none; stroke: #cccccc; stroke-width: 0.8; stroke-linecap: round"/>
     </g>
     <g id="line2d_32"/>
     <g id="text_8">
      <!-- 14 -->
      <g style="fill: #262626" transform="translate(27.059844 32.136911) scale(0.1 -0.1)">
       <use xlink:href="#LiberationSans-14"/>
       <use xlink:href="#LiberationSans-17" transform="translate(55.609375 0)"/>
      </g>
     </g>
    </g>
    <g id="text_9">
     <!-- Source Temperatures [°C] -->
     <g style="fill: #262626" transform="translate(20.534453 193.511958) rotate(-90) scale(0.12 -0.12)">
      <defs>
       <path id="LiberationSans-36" d="M 3975 1216 
Q 3975 606 3498 271 
Q 3022 -63 2156 -63 
Q 547 -63 291 1056 
L 869 1172 
Q 969 775 1294 589 
Q 1619 403 2178 403 
Q 2756 403 3070 601 
Q 3384 800 3384 1184 
Q 3384 1400 3286 1534 
Q 3188 1669 3009 1756 
Q 2831 1844 2584 1903 
Q 2338 1963 2038 2031 
Q 1516 2147 1245 2262 
Q 975 2378 819 2520 
Q 663 2663 580 2853 
Q 497 3044 497 3291 
Q 497 3856 930 4162 
Q 1363 4469 2169 4469 
Q 2919 4469 3316 4239 
Q 3713 4009 3872 3456 
L 3284 3353 
Q 3188 3703 2916 3861 
Q 2644 4019 2163 4019 
Q 1634 4019 1356 3844 
Q 1078 3669 1078 3322 
Q 1078 3119 1186 2986 
Q 1294 2853 1497 2761 
Q 1700 2669 2306 2534 
Q 2509 2488 2711 2439 
Q 2913 2391 3097 2323 
Q 3281 2256 3442 2165 
Q 3603 2075 3722 1944 
Q 3841 1813 3908 1634 
Q 3975 1456 3975 1216 
z
" transform="scale(0.015625)"/>
       <path id="LiberationSans-52" d="M 3291 1694 
Q 3291 806 2900 371 
Q 2509 -63 1766 -63 
Q 1025 -63 647 389 
Q 269 841 269 1694 
Q 269 3444 1784 3444 
Q 2559 3444 2925 3017 
Q 3291 2591 3291 1694 
z
M 2700 1694 
Q 2700 2394 2492 2711 
Q 2284 3028 1794 3028 
Q 1300 3028 1079 2704 
Q 859 2381 859 1694 
Q 859 1025 1076 689 
Q 1294 353 1759 353 
Q 2266 353 2483 678 
Q 2700 1003 2700 1694 
z
" transform="scale(0.015625)"/>
       <path id="LiberationSans-58" d="M 981 3381 
L 981 1238 
Q 981 903 1047 718 
Q 1113 534 1256 453 
Q 1400 372 1678 372 
Q 2084 372 2318 650 
Q 2553 928 2553 1422 
L 2553 3381 
L 3116 3381 
L 3116 722 
Q 3116 131 3134 0 
L 2603 0 
Q 2600 16 2597 84 
Q 2594 153 2589 242 
Q 2584 331 2578 578 
L 2569 578 
Q 2375 228 2120 82 
Q 1866 -63 1488 -63 
Q 931 -63 673 214 
Q 416 491 416 1128 
L 416 3381 
L 981 3381 
z
" transform="scale(0.015625)"/>
       <path id="LiberationSans-55" d="M 444 0 
L 444 2594 
Q 444 2950 425 3381 
L 956 3381 
Q 981 2806 981 2691 
L 994 2691 
Q 1128 3125 1303 3284 
Q 1478 3444 1797 3444 
Q 1909 3444 2025 3413 
L 2025 2897 
Q 1913 2928 1725 2928 
Q 1375 2928 1190 2626 
Q 1006 2325 1006 1763 
L 1006 0 
L 444 0 
z
" transform="scale(0.015625)"/>
       <path id="LiberationSans-46" d="M 859 1706 
Q 859 1031 1071 706 
Q 1284 381 1713 381 
Q 2013 381 2214 543 
Q 2416 706 2463 1044 
L 3031 1006 
Q 2966 519 2616 228 
Q 2266 -63 1728 -63 
Q 1019 -63 645 385 
Q 272 834 272 1694 
Q 272 2547 647 2995 
Q 1022 3444 1722 3444 
Q 2241 3444 2583 3175 
Q 2925 2906 3013 2434 
L 2434 2391 
Q 2391 2672 2212 2837 
Q 2034 3003 1706 3003 
Q 1259 3003 1059 2706 
Q 859 2409 859 1706 
z
" transform="scale(0.015625)"/>
       <path id="LiberationSans-48" d="M 863 1572 
Q 863 991 1103 675 
Q 1344 359 1806 359 
Q 2172 359 2392 506 
Q 2613 653 2691 878 
L 3184 738 
Q 2881 -63 1806 -63 
Q 1056 -63 664 384 
Q 272 831 272 1713 
Q 272 2550 664 2997 
Q 1056 3444 1784 3444 
Q 3275 3444 3275 1647 
L 3275 1572 
L 863 1572 
z
M 2694 2003 
Q 2647 2538 2422 2783 
Q 2197 3028 1775 3028 
Q 1366 3028 1127 2754 
Q 888 2481 869 2003 
L 2694 2003 
z
" transform="scale(0.015625)"/>
       <path id="LiberationSans-3" transform="scale(0.015625)"/>
       <path id="LiberationSans-37" d="M 2250 3916 
L 2250 0 
L 1656 0 
L 1656 3916 
L 144 3916 
L 144 4403 
L 3763 4403 
L 3763 3916 
L 2250 3916 
z
" transform="scale(0.015625)"/>
       <path id="LiberationSans-50" d="M 2400 0 
L 2400 2144 
Q 2400 2634 2265 2821 
Q 2131 3009 1781 3009 
Q 1422 3009 1212 2734 
Q 1003 2459 1003 1959 
L 1003 0 
L 444 0 
L 444 2659 
Q 444 3250 425 3381 
L 956 3381 
Q 959 3366 962 3297 
Q 966 3228 970 3139 
Q 975 3050 981 2803 
L 991 2803 
Q 1172 3163 1406 3303 
Q 1641 3444 1978 3444 
Q 2363 3444 2586 3291 
Q 2809 3138 2897 2803 
L 2906 2803 
Q 3081 3144 3329 3294 
Q 3578 3444 3931 3444 
Q 4444 3444 4676 3166 
Q 4909 2888 4909 2253 
L 4909 0 
L 4353 0 
L 4353 2144 
Q 4353 2634 4218 2821 
Q 4084 3009 3734 3009 
Q 3366 3009 3161 2736 
Q 2956 2463 2956 1959 
L 2956 0 
L 2400 0 
z
" transform="scale(0.015625)"/>
       <path id="LiberationSans-53" d="M 3291 1706 
Q 3291 -63 2047 -63 
Q 1266 -63 997 525 
L 981 525 
Q 994 500 994 -6 
L 994 -1328 
L 431 -1328 
L 431 2691 
Q 431 3213 413 3381 
L 956 3381 
Q 959 3369 965 3292 
Q 972 3216 980 3056 
Q 988 2897 988 2838 
L 1000 2838 
Q 1150 3150 1397 3295 
Q 1644 3441 2047 3441 
Q 2672 3441 2981 3022 
Q 3291 2603 3291 1706 
z
M 2700 1694 
Q 2700 2400 2509 2703 
Q 2319 3006 1903 3006 
Q 1569 3006 1380 2865 
Q 1191 2725 1092 2426 
Q 994 2128 994 1650 
Q 994 984 1206 668 
Q 1419 353 1897 353 
Q 2316 353 2508 661 
Q 2700 969 2700 1694 
z
" transform="scale(0.015625)"/>
       <path id="LiberationSans-44" d="M 1294 -63 
Q 784 -63 528 206 
Q 272 475 272 944 
Q 272 1469 617 1750 
Q 963 2031 1731 2050 
L 2491 2063 
L 2491 2247 
Q 2491 2659 2316 2837 
Q 2141 3016 1766 3016 
Q 1388 3016 1216 2887 
Q 1044 2759 1009 2478 
L 422 2531 
Q 566 3444 1778 3444 
Q 2416 3444 2737 3151 
Q 3059 2859 3059 2306 
L 3059 850 
Q 3059 600 3125 473 
Q 3191 347 3375 347 
Q 3456 347 3559 369 
L 3559 19 
Q 3347 -31 3125 -31 
Q 2813 -31 2670 133 
Q 2528 297 2509 647 
L 2491 647 
Q 2275 259 1989 98 
Q 1703 -63 1294 -63 
z
M 1422 359 
Q 1731 359 1972 500 
Q 2213 641 2352 886 
Q 2491 1131 2491 1391 
L 2491 1669 
L 1875 1656 
Q 1478 1650 1273 1575 
Q 1069 1500 959 1344 
Q 850 1188 850 934 
Q 850 659 998 509 
Q 1147 359 1422 359 
z
" transform="scale(0.015625)"/>
       <path id="LiberationSans-57" d="M 1731 25 
Q 1453 -50 1163 -50 
Q 488 -50 488 716 
L 488 2972 
L 97 2972 
L 97 3381 
L 509 3381 
L 675 4138 
L 1050 4138 
L 1050 3381 
L 1675 3381 
L 1675 2972 
L 1050 2972 
L 1050 838 
Q 1050 594 1129 495 
Q 1209 397 1406 397 
Q 1519 397 1731 441 
L 1731 25 
z
" transform="scale(0.015625)"/>
       <path id="LiberationSans-56" d="M 2969 934 
Q 2969 456 2608 196 
Q 2247 -63 1597 -63 
Q 966 -63 623 145 
Q 281 353 178 794 
L 675 891 
Q 747 619 972 492 
Q 1197 366 1597 366 
Q 2025 366 2223 497 
Q 2422 628 2422 891 
Q 2422 1091 2284 1216 
Q 2147 1341 1841 1422 
L 1438 1528 
Q 953 1653 748 1773 
Q 544 1894 428 2066 
Q 313 2238 313 2488 
Q 313 2950 642 3192 
Q 972 3434 1603 3434 
Q 2163 3434 2492 3237 
Q 2822 3041 2909 2606 
L 2403 2544 
Q 2356 2769 2151 2889 
Q 1947 3009 1603 3009 
Q 1222 3009 1040 2893 
Q 859 2778 859 2544 
Q 859 2400 934 2306 
Q 1009 2213 1156 2147 
Q 1303 2081 1775 1966 
Q 2222 1853 2419 1758 
Q 2616 1663 2730 1547 
Q 2844 1431 2906 1279 
Q 2969 1128 2969 934 
z
" transform="scale(0.015625)"/>
       <path id="LiberationSans-3e" d="M 456 -1328 
L 456 4638 
L 1728 4638 
L 1728 4234 
L 1000 4234 
L 1000 -925 
L 1728 -925 
L 1728 -1328 
L 456 -1328 
z
" transform="scale(0.015625)"/>
       <path id="LiberationSans-72" d="M 2175 3578 
Q 2175 3206 1911 2947 
Q 1647 2688 1278 2688 
Q 909 2688 645 2950 
Q 381 3213 381 3578 
Q 381 3944 642 4206 
Q 903 4469 1278 4469 
Q 1653 4469 1914 4209 
Q 2175 3950 2175 3578 
z
M 1834 3578 
Q 1834 3816 1673 3978 
Q 1513 4141 1278 4141 
Q 1044 4141 883 3975 
Q 722 3809 722 3578 
Q 722 3347 886 3181 
Q 1050 3016 1278 3016 
Q 1509 3016 1671 3180 
Q 1834 3344 1834 3578 
z
" transform="scale(0.015625)"/>
       <path id="LiberationSans-26" d="M 2475 3981 
Q 1744 3981 1337 3511 
Q 931 3041 931 2222 
Q 931 1413 1354 920 
Q 1778 428 2500 428 
Q 3425 428 3891 1344 
L 4378 1100 
Q 4106 531 3614 234 
Q 3122 -63 2472 -63 
Q 1806 -63 1320 214 
Q 834 491 579 1005 
Q 325 1519 325 2222 
Q 325 3275 894 3872 
Q 1463 4469 2469 4469 
Q 3172 4469 3644 4194 
Q 4116 3919 4338 3378 
L 3772 3191 
Q 3619 3575 3280 3778 
Q 2941 3981 2475 3981 
z
" transform="scale(0.015625)"/>
       <path id="LiberationSans-40" d="M 50 -1328 
L 50 -925 
L 778 -925 
L 778 4234 
L 50 4234 
L 50 4638 
L 1322 4638 
L 1322 -1328 
L 50 -1328 
z
" transform="scale(0.015625)"/>
      </defs>
      <use xlink:href="#LiberationSans-36"/>
      <use xlink:href="#LiberationSans-52" transform="translate(66.703125 0)"/>
      <use xlink:href="#LiberationSans-58" transform="translate(122.3125 0)"/>
      <use xlink:href="#LiberationSans-55" transform="translate(177.921875 0)"/>
      <use xlink:href="#LiberationSans-46" transform="translate(211.21875 0)"/>
      <use xlink:href="#LiberationSans-48" transform="translate(261.21875 0)"/>
      <use xlink:href="#LiberationSans-3" transform="translate(316.828125 0)"/>
      <use xlink:href="#LiberationSans-37" transform="translate(342.796875 0)"/>
      <use xlink:href="#LiberationSans-48" transform="translate(392.796875 0)"/>
      <use xlink:href="#LiberationSans-50" transform="translate(448.40625 0)"/>
      <use xlink:href="#LiberationSans-53" transform="translate(531.703125 0)"/>
      <use xlink:href="#LiberationSans-48" transform="translate(587.3125 0)"/>
      <use xlink:href="#LiberationSans-55" transform="translate(642.921875 0)"/>
      <use xlink:href="#LiberationSans-44" transform="translate(676.21875 0)"/>
      <use xlink:href="#LiberationSans-57" transform="translate(731.828125 0)"/>
      <use xlink:href="#LiberationSans-58" transform="translate(759.609375 0)"/>
      <use xlink:href="#LiberationSans-55" transform="translate(815.21875 0)"/>
      <use xlink:href="#LiberationSans-48" transform="translate(848.515625 0)"/>
      <use xlink:href="#LiberationSans-56" transform="translate(904.125 0)"/>
      <use xlink:href="#LiberationSans-3" transform="translate(954.125 0)"/>
      <use xlink:href="#LiberationSans-3e" transform="translate(981.90625 0)"/>
      <use xlink:href="#LiberationSans-72" transform="translate(1009.6875 0)"/>
      <use xlink:href="#LiberationSans-26" transform="translate(1049.671875 0)"/>
      <use xlink:href="#LiberationSans-40" transform="translate(1121.890625 0)"/>
     </g>
    </g>
   </g>
   <g id="line2d_33">
    <path d="M 75.247095 138.61676 
L 77.245034 138.180452 
L 79.242973 136.901262 
L 81.240912 134.866365 
L 83.238851 132.214435 
L 85.236791 129.126198 
L 89.232669 122.498023 
L 91.230608 119.409786 
L 93.228547 116.757856 
L 95.226486 114.722959 
L 97.224425 113.443769 
L 99.222364 113.007461 
L 101.220303 113.443769 
L 103.218242 114.722959 
L 105.216181 116.757856 
L 107.21412 119.409786 
L 109.212059 122.498023 
L 113.207938 129.126198 
L 115.205877 132.214435 
L 117.203816 134.866365 
L 119.201755 136.901262 
L 121.199694 138.180452 
L 123.197633 170.628384 
L 125.195572 169.60306 
L 127.193511 166.596964 
L 129.19145 161.814956 
L 131.189389 155.582921 
L 133.187328 148.325562 
L 137.183206 132.749353 
L 139.181145 125.491994 
L 141.179085 119.259959 
L 143.177024 114.477951 
L 145.174963 111.471854 
L 147.172902 110.446531 
L 149.170841 111.471854 
L 151.16878 114.477951 
L 153.166719 119.259959 
L 155.164658 125.491994 
L 157.162597 132.749353 
L 161.158475 148.325562 
L 163.156414 155.582921 
L 165.154353 161.814956 
L 167.152293 166.596964 
L 169.150232 169.60306 
L 171.148171 159.104199 
L 173.14611 158.493368 
L 175.144049 156.702502 
L 177.141988 153.853646 
L 179.139927 150.140945 
L 181.137866 145.817412 
L 185.133744 136.537968 
L 187.131683 132.214435 
L 189.129622 128.501734 
L 191.127561 125.652877 
L 193.1255 123.862012 
L 195.12344 123.251181 
L 197.121379 123.862012 
L 199.119318 125.652877 
L 201.117257 128.501734 
L 203.115196 132.214435 
L 205.113135 136.537968 
L 209.109013 145.817412 
L 211.106952 150.140945 
L 213.104891 153.853646 
L 215.10283 156.702502 
L 217.100769 158.493368 
L 219.098708 155.262804 
L 221.096647 154.71742 
L 223.094587 153.118432 
L 225.092526 150.574811 
L 227.090465 147.259898 
L 229.088404 143.399601 
L 233.084282 135.114384 
L 235.082221 131.254087 
L 237.08016 127.939174 
L 239.078099 125.395553 
L 241.076038 123.796565 
L 243.073977 123.251181 
L 245.071916 123.796565 
L 247.069855 125.395553 
L 249.067794 127.939174 
L 251.065734 131.254087 
L 253.063673 135.114384 
L 257.059551 143.399601 
L 259.05749 147.259898 
L 261.055429 150.574811 
L 263.053368 153.118432 
L 265.051307 154.71742 
L 267.049246 148.86048 
L 269.047185 147.551556 
L 271.045124 143.713986 
L 273.043063 137.609295 
L 275.041002 129.653505 
L 277.038942 120.388793 
L 281.03482 100.50427 
L 283.032759 91.239557 
L 285.030698 83.283767 
L 287.028637 77.179076 
L 289.026576 73.341506 
L 291.024515 72.032582 
L 293.022454 73.341506 
L 295.020393 77.179076 
L 297.018332 83.283767 
L 299.016271 91.239557 
L 301.01421 100.50427 
L 305.010089 120.388793 
L 307.008028 129.653505 
L 309.005967 137.609295 
L 311.003906 143.713986 
L 313.001845 147.551556 
L 314.999784 171.908849 
L 316.997723 170.970787 
L 318.995662 168.220529 
L 320.993601 163.8455 
L 322.99154 158.143851 
L 324.989479 151.50414 
L 328.985357 137.253565 
L 330.983296 130.613854 
L 332.981236 124.912205 
L 334.979175 120.537176 
L 336.977114 117.786918 
L 338.975053 116.848856 
L 340.972992 117.786918 
L 342.970931 120.537176 
L 344.96887 124.912205 
L 346.966809 130.613854 
L 348.964748 137.253565 
L 352.960626 151.50414 
L 354.958565 158.143851 
L 356.956504 163.8455 
L 358.954443 168.220529 
L 360.952383 170.970787 
L 362.950322 180.872104 
L 364.948261 179.759518 
L 366.9462 176.497584 
L 368.944139 171.308596 
L 370.942078 164.546175 
L 372.940017 156.671169 
L 376.935895 139.769325 
L 378.933834 131.894319 
L 380.931773 125.131898 
L 382.929712 119.94291 
L 384.927651 116.680976 
L 386.925591 115.568391 
L 388.92353 116.680976 
L 390.921469 119.94291 
L 392.919408 125.131898 
L 394.917347 131.894319 
L 396.915286 139.769325 
L 400.911164 156.671169 
L 402.909103 164.546175 
L 404.907042 171.308596 
L 406.904981 176.497584 
L 408.90292 179.759518 
L 410.900859 173.189314 
L 412.898798 171.400452 
L 414.896738 166.155773 
L 416.894677 157.812694 
L 418.892616 146.939782 
L 420.890555 134.278008 
L 424.886433 107.102493 
L 426.884372 94.440719 
L 428.882311 83.567807 
L 430.88025 75.224728 
L 432.878189 69.98005 
L 434.876128 68.191188 
L 436.874067 69.98005 
L 438.872006 75.224728 
L 440.869945 83.567807 
L 442.867885 94.440719 
L 444.865824 107.102493 
L 448.861702 134.278008 
L 450.859641 146.939782 
L 452.85758 157.812694 
L 454.855519 166.155773 
L 456.853458 171.400452 
L 458.851397 209.042332 
L 460.849336 207.471624 
L 462.847275 202.866541 
L 464.845214 195.54091 
L 466.843153 185.993963 
L 468.841092 174.876308 
L 472.836971 151.01488 
L 474.83491 139.897225 
L 476.832849 130.350278 
L 478.830788 123.024648 
L 480.828727 118.419564 
L 482.826666 116.848856 
L 484.824605 118.419564 
L 486.822544 123.024648 
L 488.820483 130.350278 
L 490.818422 139.897225 
L 492.816361 151.01488 
L 496.812239 174.876308 
L 498.810179 185.993963 
L 500.808118 195.54091 
L 502.806057 202.866541 
L 504.803996 207.471624 
L 506.801935 191.115823 
L 508.799874 190.483177 
L 510.797813 188.628351 
L 512.795752 185.67775 
L 514.793691 181.832452 
L 516.79163 177.354508 
L 520.787508 167.743655 
L 522.785447 163.26571 
L 524.783387 159.420412 
L 526.781326 156.469811 
L 528.779265 154.614986 
L 530.777204 153.982339 
L 532.775143 154.614986 
L 534.773082 156.469811 
L 536.771021 159.420412 
L 538.76896 163.26571 
L 540.766899 167.743655 
L 544.762777 177.354508 
L 546.760716 181.832452 
L 548.758655 185.67775 
L 550.756594 188.628351 
L 552.754534 190.483177 
L 554.752473 212.883727 
L 556.750412 210.854896 
L 558.748351 204.906663 
L 560.74629 195.444391 
L 562.744229 183.112917 
L 564.742168 168.752612 
L 568.738046 137.931602 
L 570.735985 123.571297 
L 572.733924 111.239823 
L 574.731863 101.777551 
L 576.729802 95.829318 
L 578.727741 93.800487 
L 580.725681 95.829318 
L 582.72362 101.777551 
L 584.721559 111.239823 
L 586.719498 123.571297 
L 588.717437 137.931602 
L 592.713315 168.752612 
L 594.711254 183.112917 
L 596.709193 195.444391 
L 598.707132 204.906663 
L 600.705071 210.854896 
L 602.70301 152.701875 
L 604.700949 151.480213 
L 606.698888 147.898481 
L 608.696828 142.200768 
L 610.694767 134.775365 
L 612.692706 126.1283 
L 616.688584 107.569412 
L 618.686523 98.922346 
L 620.684462 91.496943 
L 622.682401 85.799231 
L 624.68034 82.217499 
L 626.678279 80.995837 
L 628.676218 82.217499 
L 630.674157 85.799231 
L 632.672096 91.496943 
L 634.670036 98.922346 
L 636.667975 107.569412 
L 640.663853 126.1283 
L 642.661792 134.775365 
L 644.659731 142.200768 
L 646.65767 147.898481 
L 648.655609 151.480213 
L 650.653548 120.690251 
L 652.651487 119.403142 
L 654.649426 115.629532 
L 656.647365 109.626585 
L 658.645304 101.803393 
L 660.643243 92.693092 
L 664.639122 73.139977 
L 666.637061 64.029676 
L 668.635 56.206484 
L 670.632939 50.203537 
L 672.630878 46.429927 
L 674.628817 45.142818 
L 676.626756 46.429927 
L 678.624695 50.203537 
L 680.622634 56.206484 
L 682.620573 64.029676 
L 684.618512 73.139977 
L 688.61439 92.693092 
L 690.61233 101.803393 
L 692.610269 109.626585 
L 694.608208 115.629532 
L 696.606147 119.403142 
L 698.604086 134.775365 
L 700.602025 133.09558 
L 702.599964 128.170699 
L 704.597903 120.336344 
L 706.595842 110.126415 
L 708.593781 98.2367 
L 712.589659 72.718229 
L 714.587598 60.828514 
L 716.585537 50.618584 
L 718.583477 42.78423 
L 720.581416 37.859349 
L 722.579355 36.179564 
L 724.577294 37.859349 
L 726.575233 42.78423 
L 728.573172 50.618584 
L 730.571111 60.828514 
L 732.56905 72.718229 
L 736.564928 98.2367 
L 738.562867 110.126415 
L 740.560806 120.336344 
L 742.558745 128.170699 
L 744.556685 133.09558 
L 746.554624 162.945594 
L 746.554624 162.945594 
" clip-path="url(#p8410c94893)" style="fill: none; stroke: #2b83ba; stroke-width: 1.8; stroke-linecap: round"/>
   </g>
   <g id="line2d_34">
    <path d="M 75.247095 133.4949 
L 77.245034 133.342192 
L 79.242973 132.894476 
L 81.240912 132.182262 
L 83.238851 131.254087 
L 87.23473 129.013273 
L 91.230608 126.772459 
L 93.228547 125.844284 
L 95.226486 125.13207 
L 97.224425 124.684353 
L 99.222364 124.531646 
L 101.220303 124.684353 
L 103.218242 125.13207 
L 105.216181 125.844284 
L 107.21412 126.772459 
L 111.209998 129.013273 
L 115.205877 131.254087 
L 117.203816 132.182262 
L 119.201755 132.894476 
L 121.199694 133.342192 
L 123.197633 136.05583 
L 125.195572 135.815861 
L 127.193511 135.112306 
L 129.19145 133.993113 
L 131.189389 132.534551 
L 135.185267 129.013273 
L 139.181145 125.491994 
L 141.179085 124.033433 
L 143.177024 122.914239 
L 145.174963 122.210685 
L 147.172902 121.970716 
L 149.170841 122.210685 
L 151.16878 122.914239 
L 153.166719 124.033433 
L 155.164658 125.491994 
L 159.160536 129.013273 
L 163.156414 132.534551 
L 165.154353 133.993113 
L 167.152293 135.112306 
L 169.150232 135.815861 
L 171.148171 137.336295 
L 173.14611 137.205403 
L 175.144049 136.821646 
L 177.141988 136.211177 
L 179.139927 135.415598 
L 183.135805 133.4949 
L 187.131683 131.574203 
L 189.129622 130.778624 
L 191.127561 130.168155 
L 193.1255 129.784398 
L 195.12344 129.653505 
L 197.121379 129.784398 
L 199.119318 130.168155 
L 201.117257 130.778624 
L 203.115196 131.574203 
L 207.111074 133.4949 
L 211.106952 135.415598 
L 213.104891 136.211177 
L 215.10283 136.821646 
L 217.100769 137.205403 
L 219.098708 139.897225 
L 221.096647 139.766333 
L 223.094587 139.382576 
L 225.092526 138.772106 
L 227.090465 137.976528 
L 231.086343 136.05583 
L 235.082221 134.135133 
L 237.08016 133.339554 
L 239.078099 132.729085 
L 241.076038 132.345328 
L 243.073977 132.214435 
L 245.071916 132.345328 
L 247.069855 132.729085 
L 249.067794 133.339554 
L 251.065734 134.135133 
L 255.061612 136.05583 
L 259.05749 137.976528 
L 261.055429 138.772106 
L 263.053368 139.382576 
L 265.051307 139.766333 
L 267.049246 139.897225 
L 269.047185 139.482733 
L 271.045124 138.267502 
L 273.043063 136.33435 
L 275.041002 133.815016 
L 277.038942 130.881191 
L 281.03482 124.584425 
L 283.032759 121.650599 
L 285.030698 119.131266 
L 287.028637 117.198114 
L 289.026576 115.982883 
L 291.024515 115.568391 
L 293.022454 115.982883 
L 295.020393 117.198114 
L 297.018332 119.131266 
L 299.016271 121.650599 
L 301.01421 124.584425 
L 305.010089 130.881191 
L 307.008028 133.815016 
L 309.005967 136.33435 
L 311.003906 138.267502 
L 313.001845 139.482733 
L 314.999784 156.543269 
L 316.997723 156.150592 
L 318.995662 154.999321 
L 320.993601 153.167914 
L 322.99154 150.781177 
L 324.989479 148.001763 
L 328.985357 142.036406 
L 330.983296 139.256992 
L 332.981236 136.870256 
L 334.979175 135.038848 
L 336.977114 133.887577 
L 338.975053 133.4949 
L 340.972992 133.887577 
L 342.970931 135.038848 
L 344.96887 136.870256 
L 346.966809 139.256992 
L 348.964748 142.036406 
L 352.960626 148.001763 
L 354.958565 150.781177 
L 356.956504 153.167914 
L 358.954443 154.999321 
L 360.952383 156.150592 
L 362.950322 165.506524 
L 364.948261 165.332001 
L 366.9462 164.820325 
L 368.944139 164.006366 
L 370.942078 162.945594 
L 374.937956 160.384664 
L 378.933834 157.823734 
L 380.931773 156.762962 
L 382.929712 155.949004 
L 384.927651 155.437328 
L 386.925591 155.262804 
L 388.92353 155.437328 
L 390.921469 155.949004 
L 392.919408 156.762962 
L 394.917347 157.823734 
L 398.913225 160.384664 
L 402.909103 162.945594 
L 404.907042 164.006366 
L 406.904981 164.820325 
L 408.90292 165.332001 
L 410.900859 156.543269 
L 412.898798 156.237854 
L 414.896738 155.342421 
L 416.894677 153.917993 
L 418.892616 152.061642 
L 422.888494 147.580015 
L 426.884372 143.098387 
L 428.882311 141.242037 
L 430.88025 139.817608 
L 432.878189 138.922176 
L 434.876128 138.61676 
L 436.874067 138.922176 
L 438.872006 139.817608 
L 440.869945 141.242037 
L 442.867885 143.098387 
L 446.863763 147.580015 
L 450.859641 152.061642 
L 452.85758 153.917993 
L 454.855519 155.342421 
L 456.853458 156.237854 
L 458.851397 171.908849 
L 460.849336 171.647064 
L 462.847275 170.87955 
L 464.845214 169.658612 
L 466.843153 168.067454 
L 470.839032 164.226059 
L 474.83491 160.384664 
L 476.832849 158.793506 
L 478.830788 157.572568 
L 480.828727 156.805054 
L 482.826666 156.543269 
L 484.824605 156.805054 
L 486.822544 157.572568 
L 488.820483 158.793506 
L 490.818422 160.384664 
L 494.8143 164.226059 
L 498.810179 168.067454 
L 500.808118 169.658612 
L 502.806057 170.87955 
L 504.803996 171.647064 
L 506.801935 171.908849 
L 508.799874 171.625249 
L 510.797813 170.793775 
L 512.795752 169.471092 
L 514.793691 167.747338 
L 518.789569 163.585827 
L 522.785447 159.424316 
L 524.783387 157.700561 
L 526.781326 156.377878 
L 528.779265 155.546405 
L 530.777204 155.262804 
L 532.775143 155.546405 
L 534.773082 156.377878 
L 536.771021 157.700561 
L 538.76896 159.424316 
L 542.764838 163.585827 
L 546.760716 167.747338 
L 548.758655 169.471092 
L 550.756594 170.793775 
L 552.754534 171.625249 
L 554.752473 173.189314 
L 556.750412 172.883898 
L 558.748351 171.988465 
L 560.74629 170.564037 
L 562.744229 168.707686 
L 566.740107 164.226059 
L 570.735985 159.744432 
L 572.733924 157.888081 
L 574.731863 156.463653 
L 576.729802 155.56822 
L 578.727741 155.262804 
L 580.725681 155.56822 
L 582.72362 156.463653 
L 584.721559 157.888081 
L 586.719498 159.744432 
L 590.715376 164.226059 
L 594.711254 168.707686 
L 596.709193 170.564037 
L 598.707132 171.988465 
L 600.705071 172.883898 
L 602.70301 155.262804 
L 604.700949 154.979204 
L 606.698888 154.147731 
L 608.696828 152.825048 
L 610.694767 151.101293 
L 614.690645 146.939782 
L 618.686523 142.778271 
L 620.684462 141.054517 
L 622.682401 139.731834 
L 624.68034 138.90036 
L 626.678279 138.61676 
L 628.676218 138.90036 
L 630.674157 139.731834 
L 632.672096 141.054517 
L 634.670036 142.778271 
L 638.665914 146.939782 
L 642.661792 151.101293 
L 644.659731 152.825048 
L 646.65767 154.147731 
L 648.655609 154.979204 
L 650.653548 146.29955 
L 652.651487 145.688719 
L 654.649426 143.897853 
L 656.647365 141.048997 
L 658.645304 137.336295 
L 660.643243 133.012762 
L 664.639122 123.733318 
L 666.637061 119.409786 
L 668.635 115.697084 
L 670.632939 112.848228 
L 672.630878 111.057362 
L 674.628817 110.446531 
L 676.626756 111.057362 
L 678.624695 112.848228 
L 680.622634 115.697084 
L 682.620573 119.409786 
L 684.618512 123.733318 
L 688.61439 133.012762 
L 690.61233 137.336295 
L 692.610269 141.048997 
L 694.608208 143.897853 
L 696.606147 145.688719 
L 698.604086 123.251181 
L 700.602025 122.814873 
L 702.599964 121.535683 
L 704.597903 119.500786 
L 706.595842 116.848856 
L 708.593781 113.760618 
L 712.589659 107.132444 
L 714.587598 104.044206 
L 716.585537 101.392276 
L 718.583477 99.357379 
L 720.581416 98.078189 
L 722.579355 97.641881 
L 724.577294 98.078189 
L 726.575233 99.357379 
L 728.573172 101.392276 
L 730.571111 104.044206 
L 732.56905 107.132444 
L 736.564928 113.760618 
L 738.562867 116.848856 
L 740.560806 119.500786 
L 742.558745 121.535683 
L 744.556685 122.814873 
L 746.554624 145.019085 
L 746.554624 145.019085 
" clip-path="url(#p8410c94893)" style="fill: none; stroke-dasharray: 6.66,2.88; stroke-dashoffset: 0; stroke: #abdda4; stroke-width: 1.8"/>
   </g>
   <g id="line2d_35">
    <path d="M 75.247095 95.172023 
L 255.061612 97.547666 
L 432.878189 99.674401 
L 606.698888 101.531129 
L 746.554624 102.860577 
L 746.554624 102.860577 
" clip-path="url(#p8410c94893)" style="fill: none; stroke-dasharray: 1.8,2.97; stroke-dashoffset: 0; stroke: #fdae61; stroke-width: 1.8"/>
   </g>
   <g id="patch_3">
    <path d="M 41.681719 221.718936 
L 41.681719 27.344355 
" style="fill: none; stroke: #cccccc; stroke-linejoin: miter; stroke-linecap: square"/>
   </g>
   <g id="patch_4">
    <path d="M 780.12 221.718936 
L 780.12 27.344355 
" style="fill: none; stroke: #cccccc; stroke-linejoin: miter; stroke-linecap: square"/>
   </g>
   <g id="patch_5">
    <path d="M 41.681719 221.718936 
L 780.12 221.718936 
" style="fill: none; stroke: #cccccc; stroke-linejoin: miter; stroke-linecap: square"/>
   </g>
   <g id="patch_6">
    <path d="M 41.681719 27.344355 
L 780.12 27.344355 
" style="fill: none; stroke: #cccccc; stroke-linejoin: miter; stroke-linecap: square"/>
   </g>
   <g id="text_10">
    <!-- Transient Boundary Conditions &amp; Heat Pump Internal Regulation (Winter Cold Snap) -->
    <g style="fill: #262626" transform="translate(168.002969 21.344355) scale(0.13 -0.13)">
     <defs>
      <path id="LiberationSans-51" d="M 2578 0 
L 2578 2144 
Q 2578 2478 2512 2662 
Q 2447 2847 2303 2928 
Q 2159 3009 1881 3009 
Q 1475 3009 1240 2731 
Q 1006 2453 1006 1959 
L 1006 0 
L 444 0 
L 444 2659 
Q 444 3250 425 3381 
L 956 3381 
Q 959 3366 962 3297 
Q 966 3228 970 3139 
Q 975 3050 981 2803 
L 991 2803 
Q 1184 3153 1439 3298 
Q 1694 3444 2072 3444 
Q 2628 3444 2886 3167 
Q 3144 2891 3144 2253 
L 3144 0 
L 2578 0 
z
" transform="scale(0.015625)"/>
      <path id="LiberationSans-4c" d="M 428 4100 
L 428 4638 
L 991 4638 
L 991 4100 
L 428 4100 
z
M 428 0 
L 428 3381 
L 991 3381 
L 991 0 
L 428 0 
z
" transform="scale(0.015625)"/>
      <path id="LiberationSans-25" d="M 3931 1241 
Q 3931 653 3503 326 
Q 3075 0 2313 0 
L 525 0 
L 525 4403 
L 2125 4403 
Q 3675 4403 3675 3334 
Q 3675 2944 3456 2678 
Q 3238 2413 2838 2322 
Q 3363 2259 3647 1970 
Q 3931 1681 3931 1241 
z
M 3075 3263 
Q 3075 3619 2831 3772 
Q 2588 3925 2125 3925 
L 1122 3925 
L 1122 2531 
L 2125 2531 
Q 2603 2531 2839 2711 
Q 3075 2891 3075 3263 
z
M 3328 1288 
Q 3328 2066 2234 2066 
L 1122 2066 
L 1122 478 
L 2281 478 
Q 2828 478 3078 681 
Q 3328 884 3328 1288 
z
" transform="scale(0.015625)"/>
      <path id="LiberationSans-47" d="M 2566 544 
Q 2409 219 2151 78 
Q 1894 -63 1513 -63 
Q 872 -63 570 368 
Q 269 800 269 1675 
Q 269 3444 1513 3444 
Q 1897 3444 2153 3303 
Q 2409 3163 2566 2856 
L 2572 2856 
L 2566 3234 
L 2566 4638 
L 3128 4638 
L 3128 697 
Q 3128 169 3147 0 
L 2609 0 
Q 2600 50 2589 231 
Q 2578 413 2578 544 
L 2566 544 
z
M 859 1694 
Q 859 984 1046 678 
Q 1234 372 1656 372 
Q 2134 372 2350 703 
Q 2566 1034 2566 1731 
Q 2566 2403 2350 2715 
Q 2134 3028 1663 3028 
Q 1238 3028 1048 2714 
Q 859 2400 859 1694 
z
" transform="scale(0.015625)"/>
      <path id="LiberationSans-5c" d="M 597 -1328 
Q 366 -1328 209 -1294 
L 209 -872 
Q 328 -891 472 -891 
Q 997 -891 1303 -119 
L 1356 16 
L 16 3381 
L 616 3381 
L 1328 1513 
Q 1344 1469 1366 1408 
Q 1388 1347 1506 1000 
Q 1625 653 1634 613 
L 1853 1228 
L 2594 3381 
L 3188 3381 
L 1888 0 
Q 1678 -541 1497 -805 
Q 1316 -1069 1095 -1198 
Q 875 -1328 597 -1328 
z
" transform="scale(0.015625)"/>
      <path id="LiberationSans-9" d="M 3728 -38 
Q 3175 -38 2797 359 
Q 2563 156 2263 46 
Q 1963 -63 1634 -63 
Q 963 -63 594 260 
Q 225 584 225 1159 
Q 225 2028 1297 2500 
Q 1194 2694 1119 2959 
Q 1044 3225 1044 3444 
Q 1044 3913 1330 4170 
Q 1616 4428 2141 4428 
Q 2613 4428 2902 4190 
Q 3191 3953 3191 3541 
Q 3191 3172 2905 2884 
Q 2619 2597 1913 2316 
Q 2259 1675 2828 1028 
Q 3181 1547 3363 2309 
L 3816 2175 
Q 3619 1397 3153 709 
Q 3453 403 3803 403 
Q 4025 403 4169 453 
L 4169 31 
Q 3994 -38 3728 -38 
z
M 2716 3541 
Q 2716 3766 2559 3908 
Q 2403 4050 2134 4050 
Q 1834 4050 1678 3889 
Q 1522 3728 1522 3444 
Q 1522 3088 1725 2681 
Q 2134 2847 2326 2969 
Q 2519 3091 2617 3231 
Q 2716 3372 2716 3541 
z
M 2484 678 
Q 1866 1409 1488 2106 
Q 750 1794 750 1166 
Q 750 788 992 567 
Q 1234 347 1653 347 
Q 1875 347 2097 433 
Q 2319 519 2484 678 
z
" transform="scale(0.015625)"/>
      <path id="LiberationSans-2b" d="M 3503 0 
L 3503 2041 
L 1122 2041 
L 1122 0 
L 525 0 
L 525 4403 
L 1122 4403 
L 1122 2541 
L 3503 2541 
L 3503 4403 
L 4100 4403 
L 4100 0 
L 3503 0 
z
" transform="scale(0.015625)"/>
      <path id="LiberationSans-33" d="M 3931 3078 
Q 3931 2453 3523 2084 
Q 3116 1716 2416 1716 
L 1122 1716 
L 1122 0 
L 525 0 
L 525 4403 
L 2378 4403 
Q 3119 4403 3525 4056 
Q 3931 3709 3931 3078 
z
M 3331 3072 
Q 3331 3925 2306 3925 
L 1122 3925 
L 1122 2188 
L 2331 2188 
Q 3331 2188 3331 3072 
z
" transform="scale(0.015625)"/>
      <path id="LiberationSans-2c" d="M 591 0 
L 591 4403 
L 1188 4403 
L 1188 0 
L 591 0 
z
" transform="scale(0.015625)"/>
      <path id="LiberationSans-4f" d="M 431 0 
L 431 4638 
L 994 4638 
L 994 0 
L 431 0 
z
" transform="scale(0.015625)"/>
      <path id="LiberationSans-35" d="M 3638 0 
L 2494 1828 
L 1122 1828 
L 1122 0 
L 525 0 
L 525 4403 
L 2597 4403 
Q 3341 4403 3745 4070 
Q 4150 3738 4150 3144 
Q 4150 2653 3864 2318 
Q 3578 1984 3075 1897 
L 4325 0 
L 3638 0 
z
M 3550 3138 
Q 3550 3522 3289 3723 
Q 3028 3925 2538 3925 
L 1122 3925 
L 1122 2300 
L 2563 2300 
Q 3034 2300 3292 2520 
Q 3550 2741 3550 3138 
z
" transform="scale(0.015625)"/>
      <path id="LiberationSans-4a" d="M 1713 -1328 
Q 1159 -1328 831 -1111 
Q 503 -894 409 -494 
L 975 -413 
Q 1031 -647 1223 -773 
Q 1416 -900 1728 -900 
Q 2569 -900 2569 84 
L 2569 628 
L 2563 628 
Q 2403 303 2125 139 
Q 1847 -25 1475 -25 
Q 853 -25 561 387 
Q 269 800 269 1684 
Q 269 2581 583 3007 
Q 897 3434 1538 3434 
Q 1897 3434 2161 3270 
Q 2425 3106 2569 2803 
L 2575 2803 
Q 2575 2897 2587 3128 
Q 2600 3359 2613 3381 
L 3147 3381 
Q 3128 3213 3128 2681 
L 3128 97 
Q 3128 -1328 1713 -1328 
z
M 2569 1691 
Q 2569 2103 2456 2401 
Q 2344 2700 2139 2858 
Q 1934 3016 1675 3016 
Q 1244 3016 1047 2703 
Q 850 2391 850 1691 
Q 850 997 1034 694 
Q 1219 391 1666 391 
Q 1931 391 2137 547 
Q 2344 703 2456 995 
Q 2569 1288 2569 1691 
z
" transform="scale(0.015625)"/>
      <path id="LiberationSans-b" d="M 397 1663 
Q 397 2566 680 3284 
Q 963 4003 1550 4638 
L 2094 4638 
Q 1509 3988 1236 3256 
Q 963 2525 963 1656 
Q 963 791 1233 62 
Q 1503 -666 2094 -1325 
L 1550 -1325 
Q 959 -688 678 32 
Q 397 753 397 1650 
L 397 1663 
z
" transform="scale(0.015625)"/>
      <path id="LiberationSans-3a" d="M 4722 0 
L 4009 0 
L 3247 2797 
Q 3172 3059 3028 3738 
Q 2947 3375 2890 3131 
Q 2834 2888 2038 0 
L 1325 0 
L 28 4403 
L 650 4403 
L 1441 1606 
Q 1581 1081 1700 525 
Q 1775 869 1873 1275 
Q 1972 1681 2741 4403 
L 3313 4403 
L 4078 1663 
Q 4253 991 4353 525 
L 4381 634 
Q 4466 994 4519 1220 
Q 4572 1447 5397 4403 
L 6019 4403 
L 4722 0 
z
" transform="scale(0.015625)"/>
      <path id="LiberationSans-c" d="M 1734 1650 
Q 1734 747 1451 28 
Q 1169 -691 581 -1325 
L 38 -1325 
Q 625 -669 897 57 
Q 1169 784 1169 1656 
Q 1169 2528 895 3256 
Q 622 3984 38 4638 
L 581 4638 
Q 1172 4000 1453 3279 
Q 1734 2559 1734 1663 
L 1734 1650 
z
" transform="scale(0.015625)"/>
     </defs>
     <use xlink:href="#LiberationSans-37"/>
     <use xlink:href="#LiberationSans-55" transform="translate(57.375 0)"/>
     <use xlink:href="#LiberationSans-44" transform="translate(90.671875 0)"/>
     <use xlink:href="#LiberationSans-51" transform="translate(146.28125 0)"/>
     <use xlink:href="#LiberationSans-56" transform="translate(201.890625 0)"/>
     <use xlink:href="#LiberationSans-4c" transform="translate(251.890625 0)"/>
     <use xlink:href="#LiberationSans-48" transform="translate(274.109375 0)"/>
     <use xlink:href="#LiberationSans-51" transform="translate(329.71875 0)"/>
     <use xlink:href="#LiberationSans-57" transform="translate(385.328125 0)"/>
     <use xlink:href="#LiberationSans-3" transform="translate(413.109375 0)"/>
     <use xlink:href="#LiberationSans-25" transform="translate(440.890625 0)"/>
     <use xlink:href="#LiberationSans-52" transform="translate(507.59375 0)"/>
     <use xlink:href="#LiberationSans-58" transform="translate(563.203125 0)"/>
     <use xlink:href="#LiberationSans-51" transform="translate(618.8125 0)"/>
     <use xlink:href="#LiberationSans-47" transform="translate(674.421875 0)"/>
     <use xlink:href="#LiberationSans-44" transform="translate(730.03125 0)"/>
     <use xlink:href="#LiberationSans-55" transform="translate(785.640625 0)"/>
     <use xlink:href="#LiberationSans-5c" transform="translate(818.9375 0)"/>
     <use xlink:href="#LiberationSans-3" transform="translate(868.9375 0)"/>
     <use xlink:href="#LiberationSans-26" transform="translate(896.71875 0)"/>
     <use xlink:href="#LiberationSans-52" transform="translate(968.9375 0)"/>
     <use xlink:href="#LiberationSans-51" transform="translate(1024.546875 0)"/>
     <use xlink:href="#LiberationSans-47" transform="translate(1080.15625 0)"/>
     <use xlink:href="#LiberationSans-4c" transform="translate(1135.765625 0)"/>
     <use xlink:href="#LiberationSans-57" transform="translate(1157.984375 0)"/>
     <use xlink:href="#LiberationSans-4c" transform="translate(1185.765625 0)"/>
     <use xlink:href="#LiberationSans-52" transform="translate(1207.984375 0)"/>
     <use xlink:href="#LiberationSans-51" transform="translate(1263.59375 0)"/>
     <use xlink:href="#LiberationSans-56" transform="translate(1319.203125 0)"/>
     <use xlink:href="#LiberationSans-3" transform="translate(1369.203125 0)"/>
     <use xlink:href="#LiberationSans-9" transform="translate(1396.984375 0)"/>
     <use xlink:href="#LiberationSans-3" transform="translate(1463.6875 0)"/>
     <use xlink:href="#LiberationSans-2b" transform="translate(1491.46875 0)"/>
     <use xlink:href="#LiberationSans-48" transform="translate(1563.6875 0)"/>
     <use xlink:href="#LiberationSans-44" transform="translate(1619.296875 0)"/>
     <use xlink:href="#LiberationSans-57" transform="translate(1674.90625 0)"/>
     <use xlink:href="#LiberationSans-3" transform="translate(1702.6875 0)"/>
     <use xlink:href="#LiberationSans-33" transform="translate(1730.46875 0)"/>
     <use xlink:href="#LiberationSans-58" transform="translate(1797.171875 0)"/>
     <use xlink:href="#LiberationSans-50" transform="translate(1852.78125 0)"/>
     <use xlink:href="#LiberationSans-53" transform="translate(1936.078125 0)"/>
     <use xlink:href="#LiberationSans-3" transform="translate(1991.6875 0)"/>
     <use xlink:href="#LiberationSans-2c" transform="translate(2019.46875 0)"/>
     <use xlink:href="#LiberationSans-51" transform="translate(2047.25 0)"/>
     <use xlink:href="#LiberationSans-57" transform="translate(2102.859375 0)"/>
     <use xlink:href="#LiberationSans-48" transform="translate(2130.640625 0)"/>
     <use xlink:href="#LiberationSans-55" transform="translate(2186.25 0)"/>
     <use xlink:href="#LiberationSans-51" transform="translate(2219.546875 0)"/>
     <use xlink:href="#LiberationSans-44" transform="translate(2275.15625 0)"/>
     <use xlink:href="#LiberationSans-4f" transform="translate(2330.765625 0)"/>
     <use xlink:href="#LiberationSans-3" transform="translate(2352.984375 0)"/>
     <use xlink:href="#LiberationSans-35" transform="translate(2380.765625 0)"/>
     <use xlink:href="#LiberationSans-48" transform="translate(2452.984375 0)"/>
     <use xlink:href="#LiberationSans-4a" transform="translate(2508.59375 0)"/>
     <use xlink:href="#LiberationSans-58" transform="translate(2564.203125 0)"/>
     <use xlink:href="#LiberationSans-4f" transform="translate(2619.8125 0)"/>
     <use xlink:href="#LiberationSans-44" transform="translate(2642.03125 0)"/>
     <use xlink:href="#LiberationSans-57" transform="translate(2697.640625 0)"/>
     <use xlink:href="#LiberationSans-4c" transform="translate(2725.421875 0)"/>
     <use xlink:href="#LiberationSans-52" transform="translate(2747.640625 0)"/>
     <use xlink:href="#LiberationSans-51" transform="translate(2803.25 0)"/>
     <use xlink:href="#LiberationSans-3" transform="translate(2858.859375 0)"/>
     <use xlink:href="#LiberationSans-b" transform="translate(2886.640625 0)"/>
     <use xlink:href="#LiberationSans-3a" transform="translate(2919.9375 0)"/>
     <use xlink:href="#LiberationSans-4c" transform="translate(3014.328125 0)"/>
     <use xlink:href="#LiberationSans-51" transform="translate(3036.546875 0)"/>
     <use xlink:href="#LiberationSans-57" transform="translate(3092.15625 0)"/>
     <use xlink:href="#LiberationSans-48" transform="translate(3119.9375 0)"/>
     <use xlink:href="#LiberationSans-55" transform="translate(3175.546875 0)"/>
     <use xlink:href="#LiberationSans-3" transform="translate(3208.84375 0)"/>
     <use xlink:href="#LiberationSans-26" transform="translate(3236.625 0)"/>
     <use xlink:href="#LiberationSans-52" transform="translate(3308.84375 0)"/>
     <use xlink:href="#LiberationSans-4f" transform="translate(3364.453125 0)"/>
     <use xlink:href="#LiberationSans-47" transform="translate(3386.671875 0)"/>
     <use xlink:href="#LiberationSans-3" transform="translate(3442.28125 0)"/>
     <use xlink:href="#LiberationSans-36" transform="translate(3470.0625 0)"/>
     <use xlink:href="#LiberationSans-51" transform="translate(3536.765625 0)"/>
     <use xlink:href="#LiberationSans-44" transform="translate(3592.375 0)"/>
     <use xlink:href="#LiberationSans-53" transform="translate(3647.984375 0)"/>
     <use xlink:href="#LiberationSans-c" transform="translate(3703.59375 0)"/>
    </g>
   </g>
   <g id="legend_1">
    <g id="patch_7">
     <path d="M 595.694063 81.056367 
L 772.77 81.056367 
Q 774.87 81.056367 774.87 78.956367 
L 774.87 34.694355 
Q 774.87 32.594355 772.77 32.594355 
L 595.694063 32.594355 
Q 593.594063 32.594355 593.594063 34.694355 
L 593.594063 78.956367 
Q 593.594063 81.056367 595.694063 81.056367 
z
" style="fill: #ffffff; opacity: 0.8; stroke: #cccccc; stroke-linejoin: miter"/>
    </g>
    <g id="line2d_36">
     <path d="M 597.794063 40.763643 
L 608.294063 40.763643 
L 618.794063 40.763643 
" style="fill: none; stroke: #2b83ba; stroke-width: 1.8; stroke-linecap: round"/>
    </g>
    <g id="text_11">
     <!-- External Ambient Air Temp [°C] -->
     <g style="fill: #262626" transform="translate(627.194063 44.438643) scale(0.105 -0.105)">
      <defs>
       <path id="LiberationSans-28" d="M 525 0 
L 525 4403 
L 3866 4403 
L 3866 3916 
L 1122 3916 
L 1122 2503 
L 3678 2503 
L 3678 2022 
L 1122 2022 
L 1122 488 
L 3994 488 
L 3994 0 
L 525 0 
z
" transform="scale(0.015625)"/>
       <path id="LiberationSans-5b" d="M 2503 0 
L 1594 1388 
L 678 0 
L 72 0 
L 1275 1738 
L 128 3381 
L 750 3381 
L 1594 2066 
L 2431 3381 
L 3059 3381 
L 1913 1744 
L 3131 0 
L 2503 0 
z
" transform="scale(0.015625)"/>
       <path id="LiberationSans-24" d="M 3647 0 
L 3144 1288 
L 1138 1288 
L 631 0 
L 13 0 
L 1809 4403 
L 2488 4403 
L 4256 0 
L 3647 0 
z
M 2141 3953 
L 2113 3866 
Q 2034 3606 1881 3200 
L 1319 1753 
L 2966 1753 
L 2400 3206 
Q 2313 3422 2225 3694 
L 2141 3953 
z
" transform="scale(0.015625)"/>
       <path id="LiberationSans-45" d="M 3291 1706 
Q 3291 -63 2047 -63 
Q 1663 -63 1408 76 
Q 1153 216 994 525 
L 988 525 
Q 988 428 975 229 
Q 963 31 956 0 
L 413 0 
Q 431 169 431 697 
L 431 4638 
L 994 4638 
L 994 3316 
Q 994 3113 981 2838 
L 994 2838 
Q 1150 3163 1408 3303 
Q 1666 3444 2047 3444 
Q 2688 3444 2989 3012 
Q 3291 2581 3291 1706 
z
M 2700 1688 
Q 2700 2397 2512 2703 
Q 2325 3009 1903 3009 
Q 1428 3009 1211 2684 
Q 994 2359 994 1653 
Q 994 988 1206 670 
Q 1419 353 1897 353 
Q 2322 353 2511 667 
Q 2700 981 2700 1688 
z
" transform="scale(0.015625)"/>
      </defs>
      <use xlink:href="#LiberationSans-28"/>
      <use xlink:href="#LiberationSans-5b" transform="translate(66.703125 0)"/>
      <use xlink:href="#LiberationSans-57" transform="translate(116.703125 0)"/>
      <use xlink:href="#LiberationSans-48" transform="translate(144.484375 0)"/>
      <use xlink:href="#LiberationSans-55" transform="translate(200.09375 0)"/>
      <use xlink:href="#LiberationSans-51" transform="translate(233.390625 0)"/>
      <use xlink:href="#LiberationSans-44" transform="translate(289 0)"/>
      <use xlink:href="#LiberationSans-4f" transform="translate(344.609375 0)"/>
      <use xlink:href="#LiberationSans-3" transform="translate(366.828125 0)"/>
      <use xlink:href="#LiberationSans-24" transform="translate(389.09375 0)"/>
      <use xlink:href="#LiberationSans-50" transform="translate(455.796875 0)"/>
      <use xlink:href="#LiberationSans-45" transform="translate(539.09375 0)"/>
      <use xlink:href="#LiberationSans-4c" transform="translate(594.703125 0)"/>
      <use xlink:href="#LiberationSans-48" transform="translate(616.921875 0)"/>
      <use xlink:href="#LiberationSans-51" transform="translate(672.53125 0)"/>
      <use xlink:href="#LiberationSans-57" transform="translate(728.140625 0)"/>
      <use xlink:href="#LiberationSans-3" transform="translate(755.921875 0)"/>
      <use xlink:href="#LiberationSans-24" transform="translate(778.1875 0)"/>
      <use xlink:href="#LiberationSans-4c" transform="translate(844.890625 0)"/>
      <use xlink:href="#LiberationSans-55" transform="translate(867.109375 0)"/>
      <use xlink:href="#LiberationSans-3" transform="translate(900.40625 0)"/>
      <use xlink:href="#LiberationSans-37" transform="translate(926.375 0)"/>
      <use xlink:href="#LiberationSans-48" transform="translate(976.375 0)"/>
      <use xlink:href="#LiberationSans-50" transform="translate(1031.984375 0)"/>
      <use xlink:href="#LiberationSans-53" transform="translate(1115.28125 0)"/>
      <use xlink:href="#LiberationSans-3" transform="translate(1170.890625 0)"/>
      <use xlink:href="#LiberationSans-3e" transform="translate(1198.671875 0)"/>
      <use xlink:href="#LiberationSans-72" transform="translate(1226.453125 0)"/>
      <use xlink:href="#LiberationSans-26" transform="translate(1266.4375 0)"/>
      <use xlink:href="#LiberationSans-40" transform="translate(1338.65625 0)"/>
     </g>
    </g>
    <g id="line2d_37">
     <path d="M 597.794063 55.867646 
L 608.294063 55.867646 
L 618.794063 55.867646 
" style="fill: none; stroke-dasharray: 6.66,2.88; stroke-dashoffset: 0; stroke: #abdda4; stroke-width: 1.8"/>
    </g>
    <g id="text_12">
     <!-- Sub-surface Soil Temp [°C] -->
     <g style="fill: #262626" transform="translate(627.194063 59.542646) scale(0.105 -0.105)">
      <defs>
       <path id="LiberationSans-10" d="M 284 1450 
L 284 1950 
L 1847 1950 
L 1847 1450 
L 284 1450 
z
" transform="scale(0.015625)"/>
       <path id="LiberationSans-49" d="M 1128 2972 
L 1128 0 
L 566 0 
L 566 2972 
L 91 2972 
L 91 3381 
L 566 3381 
L 566 3763 
Q 566 4225 769 4428 
Q 972 4631 1391 4631 
Q 1625 4631 1788 4594 
L 1788 4166 
Q 1647 4191 1538 4191 
Q 1322 4191 1225 4081 
Q 1128 3972 1128 3684 
L 1128 3381 
L 1788 3381 
L 1788 2972 
L 1128 2972 
z
" transform="scale(0.015625)"/>
      </defs>
      <use xlink:href="#LiberationSans-36"/>
      <use xlink:href="#LiberationSans-58" transform="translate(66.703125 0)"/>
      <use xlink:href="#LiberationSans-45" transform="translate(122.3125 0)"/>
      <use xlink:href="#LiberationSans-10" transform="translate(177.921875 0)"/>
      <use xlink:href="#LiberationSans-56" transform="translate(211.21875 0)"/>
      <use xlink:href="#LiberationSans-58" transform="translate(261.21875 0)"/>
      <use xlink:href="#LiberationSans-55" transform="translate(316.828125 0)"/>
      <use xlink:href="#LiberationSans-49" transform="translate(350.125 0)"/>
      <use xlink:href="#LiberationSans-44" transform="translate(377.90625 0)"/>
      <use xlink:href="#LiberationSans-46" transform="translate(433.515625 0)"/>
      <use xlink:href="#LiberationSans-48" transform="translate(483.515625 0)"/>
      <use xlink:href="#LiberationSans-3" transform="translate(539.125 0)"/>
      <use xlink:href="#LiberationSans-36" transform="translate(566.90625 0)"/>
      <use xlink:href="#LiberationSans-52" transform="translate(633.609375 0)"/>
      <use xlink:href="#LiberationSans-4c" transform="translate(689.21875 0)"/>
      <use xlink:href="#LiberationSans-4f" transform="translate(711.4375 0)"/>
      <use xlink:href="#LiberationSans-3" transform="translate(733.65625 0)"/>
      <use xlink:href="#LiberationSans-37" transform="translate(759.625 0)"/>
      <use xlink:href="#LiberationSans-48" transform="translate(809.625 0)"/>
      <use xlink:href="#LiberationSans-50" transform="translate(865.234375 0)"/>
      <use xlink:href="#LiberationSans-53" transform="translate(948.53125 0)"/>
      <use xlink:href="#LiberationSans-3" transform="translate(1004.140625 0)"/>
      <use xlink:href="#LiberationSans-3e" transform="translate(1031.921875 0)"/>
      <use xlink:href="#LiberationSans-72" transform="translate(1059.703125 0)"/>
      <use xlink:href="#LiberationSans-26" transform="translate(1099.6875 0)"/>
      <use xlink:href="#LiberationSans-40" transform="translate(1171.90625 0)"/>
     </g>
    </g>
    <g id="line2d_38">
     <path d="M 597.794063 70.97165 
L 608.294063 70.97165 
L 618.794063 70.97165 
" style="fill: none; stroke-dasharray: 1.8,2.97; stroke-dashoffset: 0; stroke: #fdae61; stroke-width: 1.8"/>
    </g>
    <g id="text_13">
     <!-- Water Source Temp [°C] -->
     <g style="fill: #262626" transform="translate(627.194063 74.64665) scale(0.105 -0.105)">
      <use xlink:href="#LiberationSans-3a"/>
      <use xlink:href="#LiberationSans-44" transform="translate(90.6875 0)"/>
      <use xlink:href="#LiberationSans-57" transform="translate(146.296875 0)"/>
      <use xlink:href="#LiberationSans-48" transform="translate(174.078125 0)"/>
      <use xlink:href="#LiberationSans-55" transform="translate(229.6875 0)"/>
      <use xlink:href="#LiberationSans-3" transform="translate(262.984375 0)"/>
      <use xlink:href="#LiberationSans-36" transform="translate(290.765625 0)"/>
      <use xlink:href="#LiberationSans-52" transform="translate(357.46875 0)"/>
      <use xlink:href="#LiberationSans-58" transform="translate(413.078125 0)"/>
      <use xlink:href="#LiberationSans-55" transform="translate(468.6875 0)"/>
      <use xlink:href="#LiberationSans-46" transform="translate(501.984375 0)"/>
      <use xlink:href="#LiberationSans-48" transform="translate(551.984375 0)"/>
      <use xlink:href="#LiberationSans-3" transform="translate(607.59375 0)"/>
      <use xlink:href="#LiberationSans-37" transform="translate(633.5625 0)"/>
      <use xlink:href="#LiberationSans-48" transform="translate(683.5625 0)"/>
      <use xlink:href="#LiberationSans-50" transform="translate(739.171875 0)"/>
      <use xlink:href="#LiberationSans-53" transform="translate(822.46875 0)"/>
      <use xlink:href="#LiberationSans-3" transform="translate(878.078125 0)"/>
      <use xlink:href="#LiberationSans-3e" transform="translate(905.859375 0)"/>
      <use xlink:href="#LiberationSans-72" transform="translate(933.640625 0)"/>
      <use xlink:href="#LiberationSans-26" transform="translate(973.625 0)"/>
      <use xlink:href="#LiberationSans-40" transform="translate(1045.84375 0)"/>
     </g>
    </g>
   </g>
  </g>
  <g id="axes_2">
   <g id="patch_8">
    <path d="M 41.681719 427.973516 
L 780.12 427.973516 
L 780.12 233.598936 
L 41.681719 233.598936 
z
" style="fill: #ffffff"/>
   </g>
   <g id="matplotlib.axis_3">
    <g id="xtick_9">
     <g id="line2d_39">
      <path d="M 75.247095 427.973516 
L 75.247095 233.598936 
" clip-path="url(#pfab29a6968)" style="fill: none; stroke: #cccccc; stroke-width: 0.8; stroke-linecap: round"/>
     </g>
     <g id="line2d_40"/>
     <g id="text_14">
      <!-- 0 -->
      <g style="fill: #262626" transform="translate(72.466626 438.753789) scale(0.1 -0.1)">
       <use xlink:href="#LiberationSans-13"/>
      </g>
     </g>
    </g>
    <g id="xtick_10">
     <g id="line2d_41">
      <path d="M 171.148171 427.973516 
L 171.148171 233.598936 
" clip-path="url(#pfab29a6968)" style="fill: none; stroke: #cccccc; stroke-width: 0.8; stroke-linecap: round"/>
     </g>
     <g id="line2d_42"/>
     <g id="text_15">
      <!-- 2 -->
      <g style="fill: #262626" transform="translate(168.367702 438.753789) scale(0.1 -0.1)">
       <use xlink:href="#LiberationSans-15"/>
      </g>
     </g>
    </g>
    <g id="xtick_11">
     <g id="line2d_43">
      <path d="M 267.049246 427.973516 
L 267.049246 233.598936 
" clip-path="url(#pfab29a6968)" style="fill: none; stroke: #cccccc; stroke-width: 0.8; stroke-linecap: round"/>
     </g>
     <g id="line2d_44"/>
     <g id="text_16">
      <!-- 4 -->
      <g style="fill: #262626" transform="translate(264.268777 438.753789) scale(0.1 -0.1)">
       <use xlink:href="#LiberationSans-17"/>
      </g>
     </g>
    </g>
    <g id="xtick_12">
     <g id="line2d_45">
      <path d="M 362.950322 427.973516 
L 362.950322 233.598936 
" clip-path="url(#pfab29a6968)" style="fill: none; stroke: #cccccc; stroke-width: 0.8; stroke-linecap: round"/>
     </g>
     <g id="line2d_46"/>
     <g id="text_17">
      <!-- 6 -->
      <g style="fill: #262626" transform="translate(360.169853 438.753789) scale(0.1 -0.1)">
       <use xlink:href="#LiberationSans-19"/>
      </g>
     </g>
    </g>
    <g id="xtick_13">
     <g id="line2d_47">
      <path d="M 458.851397 427.973516 
L 458.851397 233.598936 
" clip-path="url(#pfab29a6968)" style="fill: none; stroke: #cccccc; stroke-width: 0.8; stroke-linecap: round"/>
     </g>
     <g id="line2d_48"/>
     <g id="text_18">
      <!-- 8 -->
      <g style="fill: #262626" transform="translate(456.070928 438.753789) scale(0.1 -0.1)">
       <use xlink:href="#LiberationSans-1b"/>
      </g>
     </g>
    </g>
    <g id="xtick_14">
     <g id="line2d_49">
      <path d="M 554.752473 427.973516 
L 554.752473 233.598936 
" clip-path="url(#pfab29a6968)" style="fill: none; stroke: #cccccc; stroke-width: 0.8; stroke-linecap: round"/>
     </g>
     <g id="line2d_50"/>
     <g id="text_19">
      <!-- 10 -->
      <g style="fill: #262626" transform="translate(549.191535 438.753789) scale(0.1 -0.1)">
       <use xlink:href="#LiberationSans-14"/>
       <use xlink:href="#LiberationSans-13" transform="translate(55.609375 0)"/>
      </g>
     </g>
    </g>
    <g id="xtick_15">
     <g id="line2d_51">
      <path d="M 650.653548 427.973516 
L 650.653548 233.598936 
" clip-path="url(#pfab29a6968)" style="fill: none; stroke: #cccccc; stroke-width: 0.8; stroke-linecap: round"/>
     </g>
     <g id="line2d_52"/>
     <g id="text_20">
      <!-- 12 -->
      <g style="fill: #262626" transform="translate(645.092611 438.753789) scale(0.1 -0.1)">
       <use xlink:href="#LiberationSans-14"/>
       <use xlink:href="#LiberationSans-15" transform="translate(55.609375 0)"/>
      </g>
     </g>
    </g>
    <g id="xtick_16">
     <g id="line2d_53">
      <path d="M 746.554624 427.973516 
L 746.554624 233.598936 
" clip-path="url(#pfab29a6968)" style="fill: none; stroke: #cccccc; stroke-width: 0.8; stroke-linecap: round"/>
     </g>
     <g id="line2d_54"/>
     <g id="text_21">
      <!-- 14 -->
      <g style="fill: #262626" transform="translate(740.993686 438.753789) scale(0.1 -0.1)">
       <use xlink:href="#LiberationSans-14"/>
       <use xlink:href="#LiberationSans-17" transform="translate(55.609375 0)"/>
      </g>
     </g>
    </g>
    <g id="text_22">
     <!-- Elapsed Time [Days] -->
     <g style="fill: #262626" transform="translate(355.880859 453.594609) scale(0.12 -0.12)">
      <defs>
       <path id="LiberationSans-27" d="M 4316 2247 
Q 4316 1566 4050 1055 
Q 3784 544 3296 272 
Q 2809 0 2172 0 
L 525 0 
L 525 4403 
L 1981 4403 
Q 3100 4403 3708 3842 
Q 4316 3281 4316 2247 
z
M 3716 2247 
Q 3716 3066 3267 3495 
Q 2819 3925 1969 3925 
L 1122 3925 
L 1122 478 
L 2103 478 
Q 2588 478 2955 690 
Q 3322 903 3519 1303 
Q 3716 1703 3716 2247 
z
" transform="scale(0.015625)"/>
      </defs>
      <use xlink:href="#LiberationSans-28"/>
      <use xlink:href="#LiberationSans-4f" transform="translate(66.703125 0)"/>
      <use xlink:href="#LiberationSans-44" transform="translate(88.921875 0)"/>
      <use xlink:href="#LiberationSans-53" transform="translate(144.53125 0)"/>
      <use xlink:href="#LiberationSans-56" transform="translate(200.140625 0)"/>
      <use xlink:href="#LiberationSans-48" transform="translate(250.140625 0)"/>
      <use xlink:href="#LiberationSans-47" transform="translate(305.75 0)"/>
      <use xlink:href="#LiberationSans-3" transform="translate(361.359375 0)"/>
      <use xlink:href="#LiberationSans-37" transform="translate(387.328125 0)"/>
      <use xlink:href="#LiberationSans-4c" transform="translate(444.703125 0)"/>
      <use xlink:href="#LiberationSans-50" transform="translate(466.921875 0)"/>
      <use xlink:href="#LiberationSans-48" transform="translate(550.21875 0)"/>
      <use xlink:href="#LiberationSans-3" transform="translate(605.828125 0)"/>
      <use xlink:href="#LiberationSans-3e" transform="translate(633.609375 0)"/>
      <use xlink:href="#LiberationSans-27" transform="translate(661.390625 0)"/>
      <use xlink:href="#LiberationSans-44" transform="translate(733.609375 0)"/>
      <use xlink:href="#LiberationSans-5c" transform="translate(789.21875 0)"/>
      <use xlink:href="#LiberationSans-56" transform="translate(839.21875 0)"/>
      <use xlink:href="#LiberationSans-40" transform="translate(889.21875 0)"/>
     </g>
    </g>
   </g>
   <g id="matplotlib.axis_4">
    <g id="ytick_9">
     <g id="line2d_55">
      <path d="M 41.681719 427.91253 
L 780.12 427.91253 
" clip-path="url(#pfab29a6968)" style="fill: none; stroke: #cccccc; stroke-width: 0.8; stroke-linecap: round"/>
     </g>
     <g id="line2d_56"/>
     <g id="text_23">
      <!-- 10 -->
      <g style="fill: #262626" transform="translate(27.059844 431.552666) scale(0.1 -0.1)">
       <use xlink:href="#LiberationSans-14"/>
       <use xlink:href="#LiberationSans-13" transform="translate(55.609375 0)"/>
      </g>
     </g>
    </g>
    <g id="ytick_10">
     <g id="line2d_57">
      <path d="M 41.681719 406.235899 
L 780.12 406.235899 
" clip-path="url(#pfab29a6968)" style="fill: none; stroke: #cccccc; stroke-width: 0.8; stroke-linecap: round"/>
     </g>
     <g id="line2d_58"/>
     <g id="text_24">
      <!-- 15 -->
      <g style="fill: #262626" transform="translate(27.059844 409.876035) scale(0.1 -0.1)">
       <defs>
        <path id="LiberationSans-18" d="M 3291 1434 
Q 3291 738 2877 337 
Q 2463 -63 1728 -63 
Q 1113 -63 734 206 
Q 356 475 256 984 
L 825 1050 
Q 1003 397 1741 397 
Q 2194 397 2450 670 
Q 2706 944 2706 1422 
Q 2706 1838 2448 2094 
Q 2191 2350 1753 2350 
Q 1525 2350 1328 2278 
Q 1131 2206 934 2034 
L 384 2034 
L 531 4403 
L 3034 4403 
L 3034 3925 
L 1044 3925 
L 959 2528 
Q 1325 2809 1869 2809 
Q 2519 2809 2905 2428 
Q 3291 2047 3291 1434 
z
" transform="scale(0.015625)"/>
       </defs>
       <use xlink:href="#LiberationSans-14"/>
       <use xlink:href="#LiberationSans-18" transform="translate(55.609375 0)"/>
      </g>
     </g>
    </g>
    <g id="ytick_11">
     <g id="line2d_59">
      <path d="M 41.681719 384.559268 
L 780.12 384.559268 
" clip-path="url(#pfab29a6968)" style="fill: none; stroke: #cccccc; stroke-width: 0.8; stroke-linecap: round"/>
     </g>
     <g id="line2d_60"/>
     <g id="text_25">
      <!-- 20 -->
      <g style="fill: #262626" transform="translate(27.059844 388.199405) scale(0.1 -0.1)">
       <use xlink:href="#LiberationSans-15"/>
       <use xlink:href="#LiberationSans-13" transform="translate(55.609375 0)"/>
      </g>
     </g>
    </g>
    <g id="ytick_12">
     <g id="line2d_61">
      <path d="M 41.681719 362.882637 
L 780.12 362.882637 
" clip-path="url(#pfab29a6968)" style="fill: none; stroke: #cccccc; stroke-width: 0.8; stroke-linecap: round"/>
     </g>
     <g id="line2d_62"/>
     <g id="text_26">
      <!-- 25 -->
      <g style="fill: #262626" transform="translate(27.059844 366.522774) scale(0.1 -0.1)">
       <use xlink:href="#LiberationSans-15"/>
       <use xlink:href="#LiberationSans-18" transform="translate(55.609375 0)"/>
      </g>
     </g>
    </g>
    <g id="ytick_13">
     <g id="line2d_63">
      <path d="M 41.681719 341.206006 
L 780.12 341.206006 
" clip-path="url(#pfab29a6968)" style="fill: none; stroke: #cccccc; stroke-width: 0.8; stroke-linecap: round"/>
     </g>
     <g id="line2d_64"/>
     <g id="text_27">
      <!-- 30 -->
      <g style="fill: #262626" transform="translate(27.059844 344.846143) scale(0.1 -0.1)">
       <defs>
        <path id="LiberationSans-16" d="M 3278 1216 
Q 3278 606 2890 271 
Q 2503 -63 1784 -63 
Q 1116 -63 717 239 
Q 319 541 244 1131 
L 825 1184 
Q 938 403 1784 403 
Q 2209 403 2451 612 
Q 2694 822 2694 1234 
Q 2694 1594 2417 1795 
Q 2141 1997 1619 1997 
L 1300 1997 
L 1300 2484 
L 1606 2484 
Q 2069 2484 2323 2686 
Q 2578 2888 2578 3244 
Q 2578 3597 2370 3801 
Q 2163 4006 1753 4006 
Q 1381 4006 1151 3815 
Q 922 3625 884 3278 
L 319 3322 
Q 381 3863 767 4166 
Q 1153 4469 1759 4469 
Q 2422 4469 2789 4161 
Q 3156 3853 3156 3303 
Q 3156 2881 2920 2617 
Q 2684 2353 2234 2259 
L 2234 2247 
Q 2728 2194 3003 1916 
Q 3278 1638 3278 1216 
z
" transform="scale(0.015625)"/>
       </defs>
       <use xlink:href="#LiberationSans-16"/>
       <use xlink:href="#LiberationSans-13" transform="translate(55.609375 0)"/>
      </g>
     </g>
    </g>
    <g id="ytick_14">
     <g id="line2d_65">
      <path d="M 41.681719 319.529375 
L 780.12 319.529375 
" clip-path="url(#pfab29a6968)" style="fill: none; stroke: #cccccc; stroke-width: 0.8; stroke-linecap: round"/>
     </g>
     <g id="line2d_66"/>
     <g id="text_28">
      <!-- 35 -->
      <g style="fill: #262626" transform="translate(27.059844 323.169512) scale(0.1 -0.1)">
       <use xlink:href="#LiberationSans-16"/>
       <use xlink:href="#LiberationSans-18" transform="translate(55.609375 0)"/>
      </g>
     </g>
    </g>
    <g id="ytick_15">
     <g id="line2d_67">
      <path d="M 41.681719 297.852744 
L 780.12 297.852744 
" clip-path="url(#pfab29a6968)" style="fill: none; stroke: #cccccc; stroke-width: 0.8; stroke-linecap: round"/>
     </g>
     <g id="line2d_68"/>
     <g id="text_29">
      <!-- 40 -->
      <g style="fill: #262626" transform="translate(27.059844 301.492881) scale(0.1 -0.1)">
       <use xlink:href="#LiberationSans-17"/>
       <use xlink:href="#LiberationSans-13" transform="translate(55.609375 0)"/>
      </g>
     </g>
    </g>
    <g id="ytick_16">
     <g id="line2d_69">
      <path d="M 41.681719 276.176113 
L 780.12 276.176113 
" clip-path="url(#pfab29a6968)" style="fill: none; stroke: #cccccc; stroke-width: 0.8; stroke-linecap: round"/>
     </g>
     <g id="line2d_70"/>
     <g id="text_30">
      <!-- 45 -->
      <g style="fill: #262626" transform="translate(27.059844 279.81625) scale(0.1 -0.1)">
       <use xlink:href="#LiberationSans-17"/>
       <use xlink:href="#LiberationSans-18" transform="translate(55.609375 0)"/>
      </g>
     </g>
    </g>
    <g id="ytick_17">
     <g id="line2d_71">
      <path d="M 41.681719 254.499482 
L 780.12 254.499482 
" clip-path="url(#pfab29a6968)" style="fill: none; stroke: #cccccc; stroke-width: 0.8; stroke-linecap: round"/>
     </g>
     <g id="line2d_72"/>
     <g id="text_31">
      <!-- 50 -->
      <g style="fill: #262626" transform="translate(27.059844 258.139619) scale(0.1 -0.1)">
       <use xlink:href="#LiberationSans-18"/>
       <use xlink:href="#LiberationSans-13" transform="translate(55.609375 0)"/>
      </g>
     </g>
    </g>
    <g id="text_32">
     <!-- Compressor Work [kW] -->
     <g style="fill: #262626" transform="translate(20.534453 392.679038) rotate(-90) scale(0.12 -0.12)">
      <defs>
       <path id="LiberationSans-4e" d="M 2550 0 
L 1406 1544 
L 994 1203 
L 994 0 
L 431 0 
L 431 4638 
L 994 4638 
L 994 1741 
L 2478 3381 
L 3138 3381 
L 1766 1928 
L 3209 0 
L 2550 0 
z
" transform="scale(0.015625)"/>
      </defs>
      <use xlink:href="#LiberationSans-26"/>
      <use xlink:href="#LiberationSans-52" transform="translate(72.21875 0)"/>
      <use xlink:href="#LiberationSans-50" transform="translate(127.828125 0)"/>
      <use xlink:href="#LiberationSans-53" transform="translate(211.125 0)"/>
      <use xlink:href="#LiberationSans-55" transform="translate(266.734375 0)"/>
      <use xlink:href="#LiberationSans-48" transform="translate(300.03125 0)"/>
      <use xlink:href="#LiberationSans-56" transform="translate(355.640625 0)"/>
      <use xlink:href="#LiberationSans-56" transform="translate(405.640625 0)"/>
      <use xlink:href="#LiberationSans-52" transform="translate(455.640625 0)"/>
      <use xlink:href="#LiberationSans-55" transform="translate(511.25 0)"/>
      <use xlink:href="#LiberationSans-3" transform="translate(544.546875 0)"/>
      <use xlink:href="#LiberationSans-3a" transform="translate(572.328125 0)"/>
      <use xlink:href="#LiberationSans-52" transform="translate(664.90625 0)"/>
      <use xlink:href="#LiberationSans-55" transform="translate(720.515625 0)"/>
      <use xlink:href="#LiberationSans-4e" transform="translate(753.8125 0)"/>
      <use xlink:href="#LiberationSans-3" transform="translate(803.8125 0)"/>
      <use xlink:href="#LiberationSans-3e" transform="translate(831.59375 0)"/>
      <use xlink:href="#LiberationSans-4e" transform="translate(859.375 0)"/>
      <use xlink:href="#LiberationSans-3a" transform="translate(909.375 0)"/>
      <use xlink:href="#LiberationSans-40" transform="translate(1003.765625 0)"/>
     </g>
    </g>
   </g>
   <g id="line2d_73">
    <path d="M 41.681719 393.22992 
L 780.12 393.22992 
" clip-path="url(#pfab29a6968)" style="fill: none; stroke: #dc143c; stroke-width: 2; stroke-linecap: round"/>
   </g>
   <g id="line2d_74">
    <path d="M 75.247095 320.805152 
L 77.245034 321.200683 
L 79.242973 322.805426 
L 81.240912 324.644628 
L 83.238851 327.041524 
L 85.236791 329.832768 
L 87.23473 332.828141 
L 89.232669 341.213216 
L 91.230608 343.893387 
L 93.228547 346.194902 
L 95.226486 347.960917 
L 97.224425 349.07108 
L 99.222364 349.449736 
L 101.220303 349.07108 
L 103.218242 347.960917 
L 105.216181 346.194902 
L 107.21412 343.893387 
L 109.212059 341.213216 
L 111.209998 332.828141 
L 113.207938 329.832768 
L 115.205877 327.041524 
L 117.203816 324.644628 
L 119.201755 322.805426 
L 121.199694 321.200683 
L 123.197633 299.497259 
L 125.195572 300.383824 
L 127.193511 302.9831 
L 129.19145 307.831934 
L 131.189389 313.197138 
L 133.187328 312.258806 
L 135.185267 319.281007 
L 137.183206 326.736526 
L 139.181145 333.260616 
L 141.179085 344.131729 
L 143.177024 348.259508 
L 145.174963 351.221518 
L 147.172902 352.103867 
L 149.170841 351.221518 
L 151.16878 348.259508 
L 153.166719 344.131729 
L 155.164658 333.260616 
L 157.162597 326.736526 
L 159.160536 319.281007 
L 161.158475 312.258806 
L 163.156414 313.197138 
L 165.154353 307.831934 
L 167.152293 302.9831 
L 169.150232 300.383824 
L 171.148171 310.005705 
L 173.14611 310.531089 
L 175.144049 312.071436 
L 177.141988 314.521773 
L 179.139927 317.715116 
L 181.137866 314.341734 
L 183.135805 318.521313 
L 185.133744 323.144978 
L 187.131683 327.028083 
L 189.129622 330.362581 
L 191.127561 332.921231 
L 193.1255 339.970854 
L 195.12344 340.49763 
L 197.121379 339.970854 
L 199.119318 332.921231 
L 201.117257 330.362581 
L 203.115196 327.028083 
L 205.113135 323.144978 
L 207.111074 318.521313 
L 209.109013 314.341734 
L 211.106952 317.715116 
L 213.104891 314.521773 
L 215.10283 312.071436 
L 217.100769 310.531089 
L 219.098708 313.173666 
L 221.096647 313.643322 
L 223.094587 315.020285 
L 225.092526 317.210716 
L 227.090465 312.908459 
L 229.088404 316.390092 
L 231.086343 320.126345 
L 233.084282 324.303211 
L 235.082221 327.774437 
L 237.08016 330.755246 
L 239.078099 333.042502 
L 241.076038 339.923482 
L 243.073977 340.394383 
L 245.071916 339.923482 
L 247.069855 333.042502 
L 249.067794 330.755246 
L 251.065734 327.774437 
L 253.063673 324.303211 
L 255.061612 320.126345 
L 257.059551 316.390092 
L 259.05749 312.908459 
L 261.055429 317.210716 
L 263.053368 315.020285 
L 265.051307 313.643322 
L 267.049246 311.400173 
L 269.047185 312.584928 
L 271.045124 316.058453 
L 273.043063 321.584034 
L 275.041002 329.211011 
L 277.038942 342.891909 
L 281.03482 360.461172 
L 283.032759 377.8522 
L 285.030698 384.463252 
L 287.028637 389.235272 
L 289.026576 392.235089 
L 291.024515 393.514723 
L 293.022454 392.235089 
L 295.020393 389.235272 
L 297.018332 384.463252 
L 299.016271 377.8522 
L 301.01421 360.461172 
L 305.010089 342.891909 
L 307.008028 329.211011 
L 309.005967 321.584034 
L 311.003906 316.058453 
L 313.001845 312.584928 
L 314.999784 297.574795 
L 316.997723 298.392899 
L 318.995662 300.791459 
L 320.993601 304.607018 
L 324.989479 316.048276 
L 326.987418 315.181197 
L 328.985357 322.108339 
L 330.983296 328.128639 
L 332.981236 333.298388 
L 334.979175 342.597605 
L 336.977114 344.992063 
L 338.975053 345.808768 
L 340.972992 344.992063 
L 342.970931 342.597605 
L 344.96887 333.298388 
L 346.966809 328.128639 
L 348.964748 322.108339 
L 350.962687 315.181197 
L 352.960626 316.048276 
L 356.956504 304.607018 
L 358.954443 300.791459 
L 360.952383 298.392899 
L 362.950322 288.940737 
L 364.948261 289.902485 
L 366.9462 292.722189 
L 368.944139 297.786742 
L 370.942078 303.612914 
L 372.940017 311.097354 
L 374.937956 311.108349 
L 378.933834 326.210572 
L 380.931773 332.267817 
L 382.929712 342.261945 
L 384.927651 345.067462 
L 386.925591 346.024371 
L 388.92353 345.067462 
L 390.921469 342.261945 
L 392.919408 332.267817 
L 394.917347 326.210572 
L 398.913225 311.108349 
L 400.911164 311.097354 
L 402.909103 303.612914 
L 404.907042 297.786742 
L 406.904981 292.722189 
L 408.90292 289.902485 
L 410.900859 296.47972 
L 412.898798 298.021919 
L 414.896738 302.543416 
L 416.894677 310.438675 
L 418.892616 312.600775 
L 420.890555 324.423849 
L 422.888494 341.961305 
L 424.886433 354.014069 
L 426.884372 374.593002 
L 428.882311 383.44033 
L 430.88025 389.917809 
L 432.878189 394.24377 
L 434.876128 395.628058 
L 436.874067 394.24377 
L 438.872006 389.917809 
L 440.869945 383.44033 
L 442.867885 374.593002 
L 444.865824 354.014069 
L 446.863763 341.961305 
L 448.861702 324.423849 
L 450.859641 312.600775 
L 452.85758 310.438675 
L 454.855519 302.543416 
L 456.853458 298.021919 
L 458.851397 246.080638 
L 460.849336 247.5601 
L 462.847275 251.897665 
L 464.845214 259.678705 
L 466.843153 284.442048 
L 470.839032 304.930046 
L 472.836971 315.892461 
L 474.83491 318.530829 
L 476.832849 327.542716 
L 478.830788 339.565444 
L 480.828727 343.527994 
L 482.826666 344.879546 
L 484.824605 343.527994 
L 486.822544 339.565444 
L 488.820483 327.542716 
L 490.818422 318.530829 
L 492.816361 315.892461 
L 494.8143 305.653546 
L 496.812239 294.6464 
L 498.810179 284.442048 
L 500.808118 259.678705 
L 502.806057 251.897665 
L 504.803996 247.5601 
L 506.801935 263.698139 
L 508.799874 264.299393 
L 510.797813 266.062179 
L 512.795752 284.656506 
L 514.793691 288.025891 
L 516.79163 291.949624 
L 518.789569 296.742842 
L 520.787508 300.939518 
L 524.783387 308.917613 
L 526.781326 311.483224 
L 528.779265 313.096034 
L 530.777204 313.646134 
L 532.775143 313.096034 
L 534.773082 311.483224 
L 536.771021 308.917613 
L 542.764838 296.742842 
L 544.762777 291.949624 
L 546.760716 288.025891 
L 548.758655 284.656506 
L 550.756594 266.062179 
L 552.754534 264.299393 
L 554.752473 242.434144 
L 556.750412 244.343672 
L 558.748351 249.942125 
L 560.74629 259.728741 
L 562.744229 286.888248 
L 564.742168 299.870101 
L 566.740107 313.830881 
L 568.738046 320.219697 
L 570.735985 339.01118 
L 572.733924 349.985022 
L 574.731863 358.096089 
L 576.729802 373.063589 
L 578.727741 374.643895 
L 580.725681 373.063589 
L 582.72362 358.096089 
L 584.721559 349.985022 
L 586.719498 339.01118 
L 588.717437 320.219697 
L 590.715376 313.830881 
L 592.713315 299.870101 
L 594.711254 286.888248 
L 596.709193 259.728741 
L 598.707132 249.942125 
L 600.705071 244.343672 
L 602.70301 314.736445 
L 604.700949 315.78809 
L 606.698888 311.657956 
L 608.696828 316.794883 
L 610.694767 323.931187 
L 612.692706 331.70388 
L 614.690645 345.266722 
L 616.688584 353.635724 
L 618.686523 361.076357 
L 620.684462 376.944443 
L 622.682401 381.776657 
L 624.68034 384.565476 
L 626.678279 385.51669 
L 628.676218 384.565476 
L 630.674157 381.776657 
L 632.672096 376.944443 
L 634.670036 361.076357 
L 636.667975 353.635724 
L 638.665914 345.266722 
L 640.663853 331.70388 
L 642.661792 323.931187 
L 644.659731 316.794883 
L 646.65767 311.657956 
L 648.655609 315.78809 
L 650.653548 342.012929 
L 652.651487 343.136428 
L 654.649426 346.430362 
L 656.647365 352.034947 
L 658.645304 358.842884 
L 660.643243 376.313019 
L 664.639122 392.368654 
L 666.637061 399.518888 
L 668.635 405.921313 
L 670.632939 410.613892 
L 672.630878 410.353809 
L 674.628817 411.41593 
L 676.626756 410.353809 
L 678.624695 410.613892 
L 680.622634 405.921313 
L 682.620573 399.518888 
L 684.618512 392.368654 
L 688.61439 376.313019 
L 690.61233 358.842884 
L 692.610269 352.034947 
L 694.608208 346.430362 
L 696.606147 343.136428 
L 698.604086 325.100528 
L 700.602025 326.612404 
L 702.599964 331.044998 
L 704.597903 343.3955 
L 706.595842 352.582198 
L 708.593781 372.728592 
L 712.589659 393.294191 
L 714.587598 402.533257 
L 716.585537 410.710174 
L 718.583477 413.742221 
L 720.581416 417.765904 
L 722.579355 419.138307 
L 724.577294 417.765904 
L 726.575233 413.742221 
L 728.573172 410.710174 
L 730.571111 402.533257 
L 732.56905 393.294191 
L 736.564928 372.728592 
L 738.562867 352.582198 
L 740.560806 343.3955 
L 742.558745 331.044998 
L 744.556685 326.612404 
L 746.554624 305.705724 
L 746.554624 305.705724 
" clip-path="url(#pfab29a6968)" style="fill: none; stroke: #d95f02; stroke-opacity: 0.85; stroke-width: 1.8; stroke-linecap: round"/>
   </g>
   <g id="line2d_75">
    <path d="M 75.247095 340.776851 
L 77.245034 341.119881 
L 79.242973 342.125591 
L 81.240912 343.725446 
L 83.238851 345.810417 
L 85.236791 348.238417 
L 91.230608 355.877547 
L 93.228547 357.962518 
L 95.226486 359.562373 
L 97.224425 360.568084 
L 99.222364 360.911113 
L 101.220303 360.568084 
L 103.218242 359.562373 
L 105.216181 357.962518 
L 107.21412 355.877547 
L 109.212059 353.449547 
L 115.205877 345.810417 
L 117.203816 343.725446 
L 119.201755 342.125591 
L 121.199694 341.119881 
L 123.197633 315.924697 
L 125.195572 316.726473 
L 127.193511 319.077162 
L 129.19145 322.816568 
L 131.189389 327.689857 
L 133.187328 333.364921 
L 137.183206 345.545111 
L 139.181145 351.220176 
L 141.179085 356.093464 
L 143.177024 359.83287 
L 145.174963 362.183559 
L 147.172902 362.985335 
L 149.170841 362.183559 
L 151.16878 359.83287 
L 153.166719 356.093464 
L 155.164658 351.220176 
L 157.162597 345.545111 
L 161.158475 333.364921 
L 163.156414 327.689857 
L 165.154353 322.816568 
L 167.152293 319.077162 
L 169.150232 316.726473 
L 171.148171 324.791035 
L 173.14611 325.268248 
L 175.144049 326.667366 
L 177.141988 328.893041 
L 179.139927 331.793598 
L 181.137866 335.171368 
L 185.133744 342.420955 
L 187.131683 345.798725 
L 189.129622 348.699282 
L 191.127561 350.924957 
L 193.1255 352.324076 
L 195.12344 352.801289 
L 197.121379 352.324076 
L 199.119318 350.924957 
L 201.117257 348.699282 
L 203.115196 345.798725 
L 205.113135 342.420955 
L 209.109013 335.171368 
L 211.106952 331.793598 
L 213.104891 328.893041 
L 215.10283 326.667366 
L 217.100769 325.268248 
L 219.098708 327.668537 
L 221.096647 328.095132 
L 223.094587 329.345846 
L 225.092526 331.335445 
L 227.090465 333.928342 
L 229.088404 336.947833 
L 233.084282 343.42846 
L 235.082221 346.447951 
L 237.08016 349.040847 
L 239.078099 351.030446 
L 241.076038 352.281161 
L 243.073977 352.707756 
L 245.071916 352.281161 
L 247.069855 351.030446 
L 249.067794 349.040847 
L 251.065734 346.447951 
L 253.063673 343.42846 
L 257.059551 336.947833 
L 259.05749 333.928342 
L 261.055429 331.335445 
L 263.053368 329.345846 
L 265.051307 328.095132 
L 267.049246 332.620261 
L 269.047185 333.647755 
L 271.045124 336.660215 
L 273.043063 341.452346 
L 275.041002 347.697574 
L 277.038942 354.970295 
L 281.03482 370.579478 
L 283.032759 377.8522 
L 285.030698 384.097427 
L 287.028637 388.889559 
L 289.026576 391.902019 
L 291.024515 392.929513 
L 293.022454 391.902019 
L 295.020393 388.889559 
L 297.018332 384.097427 
L 299.016271 377.8522 
L 301.01421 370.579478 
L 305.010089 354.970295 
L 307.008028 347.697574 
L 309.005967 341.452346 
L 311.003906 336.660215 
L 313.001845 333.647755 
L 314.999784 314.186092 
L 316.997723 314.925955 
L 318.995662 317.095124 
L 320.993601 320.545773 
L 322.99154 325.042747 
L 324.989479 330.279584 
L 328.985357 341.519221 
L 330.983296 346.756059 
L 332.981236 351.253033 
L 334.979175 354.703682 
L 336.977114 356.872851 
L 338.975053 357.612714 
L 340.972992 356.872851 
L 342.970931 354.703682 
L 344.96887 351.253033 
L 346.966809 346.756059 
L 348.964748 341.519221 
L 352.960626 330.279584 
L 354.958565 325.042747 
L 356.956504 320.545773 
L 358.954443 317.095124 
L 360.952383 314.925955 
L 362.950322 306.926314 
L 364.948261 307.79319 
L 366.9462 310.334742 
L 368.944139 298.611563 
L 370.942078 304.410034 
L 372.940017 311.162498 
L 376.935895 325.655068 
L 378.933834 332.407531 
L 380.931773 338.206003 
L 382.929712 342.655326 
L 384.927651 345.452288 
L 386.925591 346.40628 
L 388.92353 345.452288 
L 390.921469 342.655326 
L 392.919408 338.206003 
L 394.917347 332.407531 
L 396.915286 325.655068 
L 400.911164 311.162498 
L 402.909103 304.410034 
L 404.907042 298.611563 
L 406.904981 294.162239 
L 408.90292 291.365278 
L 410.900859 297.310756 
L 412.898798 298.845622 
L 414.896738 303.345621 
L 416.894677 310.504086 
L 418.892616 319.83318 
L 420.890555 330.697139 
L 424.886433 354.014069 
L 426.884372 364.878028 
L 428.882311 374.207122 
L 430.88025 381.365587 
L 432.878189 385.865586 
L 434.876128 387.400452 
L 436.874067 385.865586 
L 438.872006 381.365587 
L 440.869945 374.207122 
L 442.867885 364.878028 
L 444.865824 354.014069 
L 448.861702 330.697139 
L 450.859641 319.83318 
L 452.85758 310.504086 
L 454.855519 303.345621 
L 456.853458 298.845622 
L 458.851397 266.176861 
L 460.849336 267.524292 
L 462.847275 271.474758 
L 464.845214 277.759043 
L 466.843153 285.948882 
L 468.841092 295.486152 
L 472.836971 315.955655 
L 474.83491 325.492925 
L 476.832849 333.682764 
L 478.830788 339.967049 
L 480.828727 343.917515 
L 482.826666 345.264946 
L 484.824605 343.917515 
L 486.822544 339.967049 
L 488.820483 333.682764 
L 490.818422 325.492925 
L 492.816361 315.955655 
L 496.812239 295.486152 
L 498.810179 285.948882 
L 500.808118 277.759043 
L 502.806057 271.474758 
L 504.803996 267.524292 
L 506.801935 281.435012 
L 508.799874 281.984888 
L 510.797813 283.597043 
L 512.795752 286.16161 
L 514.793691 289.50382 
L 516.79163 293.395905 
L 520.787508 301.749349 
L 522.785447 305.641434 
L 524.783387 308.983643 
L 526.781326 311.548211 
L 528.779265 313.160365 
L 530.777204 313.710241 
L 532.775143 313.160365 
L 534.773082 311.548211 
L 536.771021 308.983643 
L 538.76896 305.641434 
L 540.766899 301.749349 
L 544.762777 293.395905 
L 546.760716 289.50382 
L 548.758655 286.16161 
L 550.756594 283.597043 
L 552.754534 281.984888 
L 554.752473 262.855791 
L 556.750412 264.594907 
L 558.748351 269.693737 
L 560.74629 277.804804 
L 562.744229 288.375352 
L 564.742168 300.685016 
L 568.738046 327.10481 
L 570.735985 339.414474 
L 572.733924 349.985022 
L 574.731863 358.096089 
L 576.729802 363.194919 
L 578.727741 364.934035 
L 580.725681 363.194919 
L 582.72362 358.096089 
L 584.721559 349.985022 
L 586.719498 339.414474 
L 588.717437 327.10481 
L 592.713315 300.685016 
L 594.711254 288.375352 
L 596.709193 277.804804 
L 598.707132 269.693737 
L 600.705071 264.594907 
L 602.70301 314.800109 
L 604.700949 315.851326 
L 606.698888 318.933337 
L 608.696828 323.836108 
L 610.694767 330.225525 
L 612.692706 337.666158 
L 616.688584 353.635724 
L 618.686523 361.076357 
L 620.684462 367.465773 
L 622.682401 372.368545 
L 624.68034 375.450556 
L 626.678279 376.501773 
L 628.676218 375.450556 
L 630.674157 372.368545 
L 632.672096 367.465773 
L 634.670036 361.076357 
L 636.667975 353.635724 
L 640.663853 337.666158 
L 642.661792 330.225525 
L 644.659731 323.836108 
L 646.65767 318.933337 
L 648.655609 315.851326 
L 650.653548 342.40707 
L 652.651487 343.527143 
L 654.649426 346.811033 
L 656.647365 352.034947 
L 658.645304 358.842884 
L 660.643243 366.770895 
L 664.639122 383.786502 
L 666.637061 391.714513 
L 668.635 398.52245 
L 670.632939 403.746364 
L 672.630878 407.030254 
L 674.628817 408.150327 
L 676.626756 407.030254 
L 678.624695 403.746364 
L 680.622634 398.52245 
L 682.620573 391.714513 
L 684.618512 383.786502 
L 688.61439 366.770895 
L 690.61233 358.842884 
L 692.610269 352.034947 
L 694.608208 346.811033 
L 696.606147 343.527143 
L 698.604086 331.34491 
L 700.602025 332.792196 
L 702.599964 337.035424 
L 704.597903 343.785425 
L 706.595842 352.582198 
L 708.593781 362.826257 
L 712.589659 384.812716 
L 714.587598 395.056775 
L 716.585537 403.853547 
L 718.583477 410.603548 
L 720.581416 414.846777 
L 722.579355 416.294063 
L 724.577294 414.846777 
L 726.575233 410.603548 
L 728.573172 403.853547 
L 730.571111 395.056775 
L 732.56905 384.812716 
L 736.564928 362.826257 
L 738.562867 352.582198 
L 740.560806 343.785425 
L 742.558745 337.035424 
L 744.556685 332.792196 
L 746.554624 306.492893 
L 746.554624 306.492893 
" clip-path="url(#pfab29a6968)" style="fill: none; stroke: #1b9e77; stroke-opacity: 0.85; stroke-width: 1.8; stroke-linecap: round"/>
   </g>
   <g id="patch_9">
    <path d="M 41.681719 427.973516 
L 41.681719 233.598936 
" style="fill: none; stroke: #cccccc; stroke-linejoin: miter; stroke-linecap: square"/>
   </g>
   <g id="patch_10">
    <path d="M 780.12 427.973516 
L 780.12 233.598936 
" style="fill: none; stroke: #cccccc; stroke-linejoin: miter; stroke-linecap: square"/>
   </g>
   <g id="patch_11">
    <path d="M 41.681719 427.973516 
L 780.12 427.973516 
" style="fill: none; stroke: #cccccc; stroke-linejoin: miter; stroke-linecap: square"/>
   </g>
   <g id="patch_12">
    <path d="M 41.681719 233.598936 
L 780.12 233.598936 
" style="fill: none; stroke: #cccccc; stroke-linejoin: miter; stroke-linecap: square"/>
   </g>
   <g id="legend_2">
    <g id="patch_13">
     <path d="M 572.720391 287.310947 
L 772.77 287.310947 
Q 774.87 287.310947 774.87 285.210947 
L 774.87 240.948936 
Q 774.87 238.848936 772.77 238.848936 
L 572.720391 238.848936 
Q 570.620391 238.848936 570.620391 240.948936 
L 570.620391 285.210947 
Q 570.620391 287.310947 572.720391 287.310947 
z
" style="fill: #ffffff; opacity: 0.8; stroke: #cccccc; stroke-linejoin: miter"/>
    </g>
    <g id="line2d_76">
     <path d="M 574.820391 247.018223 
L 585.320391 247.018223 
L 595.820391 247.018223 
" style="fill: none; stroke: #dc143c; stroke-width: 2; stroke-linecap: round"/>
    </g>
    <g id="text_33">
     <!-- Target Regulated Setpoint (18.0 °C) -->
     <g style="fill: #262626" transform="translate(604.220391 250.693223) scale(0.105 -0.105)">
      <defs>
       <path id="LiberationSans-11" d="M 584 0 
L 584 684 
L 1194 684 
L 1194 0 
L 584 0 
z
" transform="scale(0.015625)"/>
      </defs>
      <use xlink:href="#LiberationSans-37"/>
      <use xlink:href="#LiberationSans-44" transform="translate(50 0)"/>
      <use xlink:href="#LiberationSans-55" transform="translate(105.609375 0)"/>
      <use xlink:href="#LiberationSans-4a" transform="translate(138.90625 0)"/>
      <use xlink:href="#LiberationSans-48" transform="translate(194.515625 0)"/>
      <use xlink:href="#LiberationSans-57" transform="translate(250.125 0)"/>
      <use xlink:href="#LiberationSans-3" transform="translate(277.90625 0)"/>
      <use xlink:href="#LiberationSans-35" transform="translate(305.6875 0)"/>
      <use xlink:href="#LiberationSans-48" transform="translate(377.90625 0)"/>
      <use xlink:href="#LiberationSans-4a" transform="translate(433.515625 0)"/>
      <use xlink:href="#LiberationSans-58" transform="translate(489.125 0)"/>
      <use xlink:href="#LiberationSans-4f" transform="translate(544.734375 0)"/>
      <use xlink:href="#LiberationSans-44" transform="translate(566.953125 0)"/>
      <use xlink:href="#LiberationSans-57" transform="translate(622.5625 0)"/>
      <use xlink:href="#LiberationSans-48" transform="translate(650.34375 0)"/>
      <use xlink:href="#LiberationSans-47" transform="translate(705.953125 0)"/>
      <use xlink:href="#LiberationSans-3" transform="translate(761.5625 0)"/>
      <use xlink:href="#LiberationSans-36" transform="translate(789.34375 0)"/>
      <use xlink:href="#LiberationSans-48" transform="translate(856.046875 0)"/>
      <use xlink:href="#LiberationSans-57" transform="translate(911.65625 0)"/>
      <use xlink:href="#LiberationSans-53" transform="translate(939.4375 0)"/>
      <use xlink:href="#LiberationSans-52" transform="translate(995.046875 0)"/>
      <use xlink:href="#LiberationSans-4c" transform="translate(1050.65625 0)"/>
      <use xlink:href="#LiberationSans-51" transform="translate(1072.875 0)"/>
      <use xlink:href="#LiberationSans-57" transform="translate(1128.484375 0)"/>
      <use xlink:href="#LiberationSans-3" transform="translate(1156.265625 0)"/>
      <use xlink:href="#LiberationSans-b" transform="translate(1184.046875 0)"/>
      <use xlink:href="#LiberationSans-14" transform="translate(1217.34375 0)"/>
      <use xlink:href="#LiberationSans-1b" transform="translate(1272.953125 0)"/>
      <use xlink:href="#LiberationSans-11" transform="translate(1328.5625 0)"/>
      <use xlink:href="#LiberationSans-13" transform="translate(1356.34375 0)"/>
      <use xlink:href="#LiberationSans-3" transform="translate(1411.953125 0)"/>
      <use xlink:href="#LiberationSans-72" transform="translate(1439.734375 0)"/>
      <use xlink:href="#LiberationSans-26" transform="translate(1479.71875 0)"/>
      <use xlink:href="#LiberationSans-c" transform="translate(1551.9375 0)"/>
     </g>
    </g>
    <g id="line2d_77">
     <path d="M 574.820391 262.122227 
L 585.320391 262.122227 
L 595.820391 262.122227 
" style="fill: none; stroke: #d95f02; stroke-opacity: 0.85; stroke-width: 1.8; stroke-linecap: round"/>
    </g>
    <g id="text_34">
     <!-- ASHP Compressor Input [kW] -->
     <g style="fill: #262626" transform="translate(604.220391 265.797227) scale(0.105 -0.105)">
      <use xlink:href="#LiberationSans-24"/>
      <use xlink:href="#LiberationSans-36" transform="translate(66.703125 0)"/>
      <use xlink:href="#LiberationSans-2b" transform="translate(133.40625 0)"/>
      <use xlink:href="#LiberationSans-33" transform="translate(205.625 0)"/>
      <use xlink:href="#LiberationSans-3" transform="translate(270.515625 0)"/>
      <use xlink:href="#LiberationSans-26" transform="translate(298.296875 0)"/>
      <use xlink:href="#LiberationSans-52" transform="translate(370.515625 0)"/>
      <use xlink:href="#LiberationSans-50" transform="translate(426.125 0)"/>
      <use xlink:href="#LiberationSans-53" transform="translate(509.421875 0)"/>
      <use xlink:href="#LiberationSans-55" transform="translate(565.03125 0)"/>
      <use xlink:href="#LiberationSans-48" transform="translate(598.328125 0)"/>
      <use xlink:href="#LiberationSans-56" transform="translate(653.9375 0)"/>
      <use xlink:href="#LiberationSans-56" transform="translate(703.9375 0)"/>
      <use xlink:href="#LiberationSans-52" transform="translate(753.9375 0)"/>
      <use xlink:href="#LiberationSans-55" transform="translate(809.546875 0)"/>
      <use xlink:href="#LiberationSans-3" transform="translate(842.84375 0)"/>
      <use xlink:href="#LiberationSans-2c" transform="translate(870.625 0)"/>
      <use xlink:href="#LiberationSans-51" transform="translate(898.40625 0)"/>
      <use xlink:href="#LiberationSans-53" transform="translate(954.015625 0)"/>
      <use xlink:href="#LiberationSans-58" transform="translate(1009.625 0)"/>
      <use xlink:href="#LiberationSans-57" transform="translate(1065.234375 0)"/>
      <use xlink:href="#LiberationSans-3" transform="translate(1093.015625 0)"/>
      <use xlink:href="#LiberationSans-3e" transform="translate(1120.796875 0)"/>
      <use xlink:href="#LiberationSans-4e" transform="translate(1148.578125 0)"/>
      <use xlink:href="#LiberationSans-3a" transform="translate(1198.578125 0)"/>
      <use xlink:href="#LiberationSans-40" transform="translate(1292.96875 0)"/>
     </g>
    </g>
    <g id="line2d_78">
     <path d="M 574.820391 277.22623 
L 585.320391 277.22623 
L 595.820391 277.22623 
" style="fill: none; stroke: #1b9e77; stroke-opacity: 0.85; stroke-width: 1.8; stroke-linecap: round"/>
    </g>
    <g id="text_35">
     <!-- WSHP Compressor Input [kW] -->
     <g style="fill: #262626" transform="translate(604.220391 280.90123) scale(0.105 -0.105)">
      <use xlink:href="#LiberationSans-3a"/>
      <use xlink:href="#LiberationSans-36" transform="translate(94.390625 0)"/>
      <use xlink:href="#LiberationSans-2b" transform="translate(161.09375 0)"/>
      <use xlink:href="#LiberationSans-33" transform="translate(233.3125 0)"/>
      <use xlink:href="#LiberationSans-3" transform="translate(298.203125 0)"/>
      <use xlink:href="#LiberationSans-26" transform="translate(325.984375 0)"/>
      <use xlink:href="#LiberationSans-52" transform="translate(398.203125 0)"/>
      <use xlink:href="#LiberationSans-50" transform="translate(453.8125 0)"/>
      <use xlink:href="#LiberationSans-53" transform="translate(537.109375 0)"/>
      <use xlink:href="#LiberationSans-55" transform="translate(592.71875 0)"/>
      <use xlink:href="#LiberationSans-48" transform="translate(626.015625 0)"/>
      <use xlink:href="#LiberationSans-56" transform="translate(681.625 0)"/>
      <use xlink:href="#LiberationSans-56" transform="translate(731.625 0)"/>
      <use xlink:href="#LiberationSans-52" transform="translate(781.625 0)"/>
      <use xlink:href="#LiberationSans-55" transform="translate(837.234375 0)"/>
      <use xlink:href="#LiberationSans-3" transform="translate(870.53125 0)"/>
      <use xlink:href="#LiberationSans-2c" transform="translate(898.3125 0)"/>
      <use xlink:href="#LiberationSans-51" transform="translate(926.09375 0)"/>
      <use xlink:href="#LiberationSans-53" transform="translate(981.703125 0)"/>
      <use xlink:href="#LiberationSans-58" transform="translate(1037.3125 0)"/>
      <use xlink:href="#LiberationSans-57" transform="translate(1092.921875 0)"/>
      <use xlink:href="#LiberationSans-3" transform="translate(1120.703125 0)"/>
      <use xlink:href="#LiberationSans-3e" transform="translate(1148.484375 0)"/>
      <use xlink:href="#LiberationSans-4e" transform="translate(1176.265625 0)"/>
      <use xlink:href="#LiberationSans-3a" transform="translate(1226.265625 0)"/>
      <use xlink:href="#LiberationSans-40" transform="translate(1320.65625 0)"/>
     </g>
    </g>
   </g>
  </g>
 </g>
 <defs>
  <clipPath id="p8410c94893">
   <rect x="41.681719" y="27.344355" width="738.438281" height="194.37458"/>
  </clipPath>
  <clipPath id="pfab29a6968">
   <rect x="41.681719" y="233.598936" width="738.438281" height="194.37458"/>
  </clipPath>
 </defs>
</svg>
